<?xml version="1.0" encoding="utf-8"?>
<!-- Generator: Adobe Illustrator 25.3.1, SVG Export Plug-In . SVG Version: 6.00 Build 0)  -->
<svg version="1.1" id="Layer_1" xmlns="http://www.w3.org/2000/svg" xmlns:xlink="http://www.w3.org/1999/xlink" x="0px" y="0px"
	 viewBox="0 0 1920 1080" style="enable-background:new 0 0 1920 1080;" xml:space="preserve">
<style type="text/css">
	.st0{fill:#F8D893;}
	.st1{fill:#F8D893;stroke:#F8D893;stroke-miterlimit:10;}
	.st2{fill:#F8D893;stroke:#B1674A;stroke-width:11;stroke-miterlimit:10;}
	.st3{fill:none;stroke:#F1891E;stroke-width:9;stroke-miterlimit:10;}
	.st4{fill:none;stroke:#FCC242;stroke-width:7;stroke-miterlimit:10;}
</style>
<g>
	<rect x="0.5" y="0.5" class="st0" width="1919" height="1079"/>
	<path class="st0" d="M1919,1v1078H1V1h144.03H1919 M1920,0C1328.34,0,736.69,0,145.03,0C96.69,0,48.34,0,0,0v1080h1920
		C1920,720,1920,360,1920,0L1920,0z"/>
</g>
<path class="st1" d="M76.5,87.5c15.67,21.67,31.33,43.33,47,65"/>
<path class="st1" d="M83.5,239.5"/>
<path class="st2" d="M90.35,35.5c47.12,78.33,69.5,156.28,40.09,222.87c-19.81,44.86-48.19,50.77-53.83,89.77
	c-12,82.93,108.48,110.66,125.99,209.46c12.35,69.71-43.07,81.66-84.76,223.91c-22.53,76.88-54.8,187.01,2.29,230.1
	c38.19,28.82,114.45,26.19,155.77-12.38c48.28-45.06,37.29-128.39,8.02-140.33c-20.16-8.23-62.27,12-64.14,39.21
	c-1.17,17.07,13.63,34.8,36.65,44.37"/>
<path class="st2" d="M1821.94,1037.3c-47.16-78.31-69.57-156.25-40.19-222.86c19.79-44.86,48.17-50.79,53.79-89.79
	c11.96-82.94-108.53-110.61-126.08-209.4c-12.38-69.71,43.04-81.68,84.65-223.94c22.49-76.89,54.72-187.04-2.39-230.1
	c-38.2-28.8-114.46-26.14-155.76,12.45c-48.26,45.09-37.24,128.4-7.95,140.33c20.17,8.22,62.27-12.03,64.12-39.24
	c1.16-17.07-13.65-34.8-36.67-44.35"/>
<path class="st3" d="M138.02,35.26c47.12,78.33,69.5,156.28,40.09,222.87c-19.81,44.86-48.19,50.77-53.83,89.77
	c-12,82.93,108.48,110.66,125.99,209.46c12.35,69.71-43.07,81.66-84.76,223.91c-22.53,76.88-54.8,187.01,2.29,230.1
	c38.19,28.82,114.45,26.19,155.77-12.38c48.28-45.06,37.29-128.39,8.02-140.33c-20.16-8.23-62.27,12-64.14,39.21
	c-1.17,17.07,13.63,34.8,36.65,44.37"/>
<path class="st3" d="M1774.16,1037.49c-47.14-78.32-69.52-156.27-40.12-222.87c19.8-44.86,48.18-50.78,53.82-89.78
	c11.98-82.94-108.5-110.64-126.02-209.44c-12.36-69.71,43.06-81.67,84.72-223.92c22.52-76.88,54.78-187.02-2.32-230.1
	c-38.19-28.81-114.45-26.17-155.77,12.4c-48.27,45.07-37.27,128.39-8,140.33c20.17,8.22,62.27-12.01,64.13-39.22
	c1.17-17.07-13.64-34.8-36.66-44.36"/>
<path class="st4" d="M194.02,41.88c47.12,78.33,69.5,156.28,40.09,222.87c-19.81,44.86-48.19,50.77-53.83,89.77
	c-12,82.93,108.48,110.66,125.99,209.46c12.35,69.71-43.07,81.66-84.76,223.91c-22.53,76.88-54.8,187.01,2.29,230.1
	c38.19,28.82,114.45,26.19,155.77-12.38c48.28-45.06,37.29-128.39,8.02-140.33c-20.16-8.23-62.27,12-64.14,39.21
	c-1.17,17.07,13.63,34.8,36.65,44.37"/>
<path class="st4" d="M1724.17,1049.11c-47.14-78.32-69.52-156.27-40.12-222.87c19.8-44.86,48.18-50.78,53.82-89.78
	c11.98-82.94-108.5-110.64-126.02-209.44c-12.36-69.71,43.06-81.67,84.72-223.92c22.52-76.88,54.77-187.02-2.33-230.1
	c-38.19-28.81-114.45-26.17-155.77,12.41c-48.27,45.07-37.27,128.39-7.99,140.33c20.17,8.22,62.27-12.01,64.13-39.22
	c1.17-17.07-13.64-34.8-36.66-44.36"/>
</svg>
