<?xml version="1.0" encoding="utf-8"?>
<!-- Generator: Adobe Illustrator 25.3.1, SVG Export Plug-In . SVG Version: 6.00 Build 0)  -->
<svg version="1.1" xmlns="http://www.w3.org/2000/svg" xmlns:xlink="http://www.w3.org/1999/xlink" x="0px" y="0px"
	 viewBox="0 0 1920 1080" style="enable-background:new 0 0 1920 1080;" xml:space="preserve">
<style type="text/css">
	.st0{fill:#FCC242;stroke:#FCC242;stroke-miterlimit:10;}
	.st1{fill:#FCC242;}
	.st2{fill:#F1891E;}
	.st3{fill:#FCC242;stroke:#F1891E;stroke-width:7;stroke-miterlimit:10;}
	.st4{fill:none;stroke:#F8D893;stroke-width:7;stroke-miterlimit:10;}
</style>
<g id="Layer_2">
	<rect x="-0.5" y="-0.5" class="st0" width="1920" height="1080"/>
</g>
<g id="Layer_1">
	<g>
		<path class="st1" d="M79.2,998.5c-0.37-177.89-0.52-358.41-0.45-536.58c0.05-120.07,0.2-242.01,0.45-362.42h1723.3v899H79.2z"/>
		<path class="st1" d="M1802,100v898H79.7c-0.37-177.89-0.52-358.26-0.45-536.08C79.3,341.75,79.45,220,79.7,100H1802 M1803,99
			c-574.77,0-1149.53,0-1724.3,0c-0.25,120.97-0.4,241.94-0.45,362.92C78.18,640.95,78.33,819.97,78.7,999H1803V99L1803,99z"/>
	</g>
	<g>
		<ellipse class="st1" cx="1648.44" cy="713.25" rx="151.42" ry="140.25"/>
		<path class="st2" d="M1648.44,576.5c39.61,0,76.82,14.29,104.78,40.23c27.82,25.81,43.14,60.09,43.14,96.52
			s-15.32,70.7-43.14,96.52c-27.96,25.95-65.17,40.23-104.78,40.23c-39.61,0-76.82-14.29-104.78-40.23
			c-27.82-25.81-43.14-60.09-43.14-96.52s15.32-70.7,43.14-96.52C1571.62,590.79,1608.83,576.5,1648.44,576.5 M1648.44,569.5
			c-85.56,0-154.92,64.36-154.92,143.75S1562.88,857,1648.44,857c85.56,0,154.92-64.36,154.92-143.75S1734,569.5,1648.44,569.5
			L1648.44,569.5z"/>
	</g>
	<polygon class="st3" points="1637.29,548.67 1589.17,399.08 1657.42,399.08 	"/>
	<polygon class="st3" points="1784.79,595.19 1850.37,451.43 1902.99,491.77 	"/>
	<polygon class="st3" points="1511.26,617.01 1362.04,544.91 1409.57,499.45 	"/>
	<polygon class="st3" points="1488.14,749.22 1326.93,793.88 1326.93,730.54 	"/>
	<polygon class="st3" points="1562.95,856.96 1517.28,1007.2 1459.64,973.29 	"/>
	<polygon class="st3" points="1707.77,882.63 1784.77,1021.43 1717.68,1033.09 	"/>
	<polygon class="st3" points="1805.78,806.61 1972,830.7 1942.62,887.86 	"/>
	<path class="st0" d="M18.5,368.5"/>
	<line class="st4" x1="1489.03" y1="473.67" x2="1562.95" y2="569.5"/>
	<line class="st4" x1="1345.81" y1="639.91" x2="1469.35" y2="667.24"/>
	<line class="st4" x1="1420.53" y1="929.14" x2="1498.81" y2="836.34"/>
	<line class="st4" x1="1611.87" y1="1015.74" x2="1634.37" y2="899.75"/>
	<line class="st4" x1="1743.55" y1="440.99" x2="1698.47" y2="551.17"/>
	<line class="st4" x1="1811.31" y1="681.71" x2="1934.25" y2="652.11"/>
</g>
</svg>
