<?xml version="1.0" encoding="utf-8"?>
<!-- Generator: Adobe Illustrator 25.3.1, SVG Export Plug-In . SVG Version: 6.00 Build 0)  -->
<svg version="1.1" id="Layer_1" xmlns="http://www.w3.org/2000/svg" xmlns:xlink="http://www.w3.org/1999/xlink" x="0px" y="0px"
	 viewBox="0 0 100 100" style="enable-background:new 0 0 100 100;" xml:space="preserve">
<style type="text/css">
	.st0{fill:#F1891E;stroke:#F1891E;stroke-miterlimit:10;}
	.st1{fill:#FCC242;stroke:#FCC242;stroke-miterlimit:10;}
	.st2{fill:#B1674A;stroke:#B1674A;stroke-miterlimit:10;}
	.st3{fill:#F1891E;}
</style>
<circle class="st0" cx="56.71" cy="25.9" r="13.86"/>
<circle class="st0" cx="36.57" cy="29.76" r="13.86"/>
<circle class="st0" cx="25.98" cy="47.68" r="13.86"/>
<circle class="st0" cx="35.53" cy="68.31" r="13.86"/>
<ellipse class="st0" cx="57.25" cy="75.24" rx="14.41" ry="12.62"/>
<circle class="st0" cx="74.18" cy="63.5" r="13.86"/>
<circle class="st0" cx="74.95" cy="39.77" r="13.86"/>
<circle class="st1" cx="56.71" cy="25.9" r="10.59"/>
<circle class="st1" cx="74.18" cy="39.97" r="10.59"/>
<circle class="st1" cx="74.18" cy="62.68" r="10.59"/>
<circle class="st1" cx="56.71" cy="74.43" r="10.59"/>
<circle class="st1" cx="35.53" cy="68.31" r="10.59"/>
<circle class="st1" cx="27.31" cy="47.68" r="10.59"/>
<circle class="st1" cx="36.57" cy="29.38" r="10.59"/>
<circle class="st2" cx="51.45" cy="49.64" r="16.73"/>
<g>
	<path class="st3" d="M36.8,52.13v-4.27h0.47l0.63,2.26h0.01l0.63-2.26h0.48v4.27h-0.49v-2.6h-0.01l-0.49,1.84h-0.25l-0.48-1.84
		h-0.01v2.6H36.8z"/>
	<path class="st3" d="M39.41,50.1c0-0.12,0.01-0.24,0.02-0.34c0.01-0.1,0.04-0.2,0.07-0.28c0.06-0.13,0.14-0.24,0.25-0.32
		c0.11-0.08,0.24-0.12,0.39-0.12s0.29,0.04,0.39,0.12c0.11,0.08,0.19,0.19,0.25,0.32c0.04,0.08,0.06,0.17,0.07,0.28
		c0.01,0.1,0.02,0.22,0.02,0.34v1c0,0.12-0.01,0.24-0.02,0.34c-0.01,0.1-0.04,0.2-0.07,0.28c-0.06,0.13-0.14,0.24-0.25,0.32
		c-0.11,0.08-0.24,0.12-0.39,0.12s-0.29-0.04-0.39-0.12c-0.11-0.08-0.19-0.19-0.25-0.32c-0.04-0.08-0.06-0.17-0.07-0.28
		c-0.01-0.1-0.02-0.22-0.02-0.34V50.1z M39.9,51.2c0,0.12,0.02,0.2,0.06,0.26c0.04,0.06,0.1,0.09,0.18,0.09
		c0.07,0,0.13-0.03,0.18-0.09c0.04-0.06,0.07-0.14,0.07-0.26v-1.19c0-0.12-0.02-0.2-0.07-0.26s-0.1-0.09-0.18-0.09
		c-0.07,0-0.13,0.03-0.18,0.09s-0.06,0.15-0.06,0.26V51.2z"/>
	<path class="st3" d="M41.24,52.13v-3.04h0.49v0.32c0.1-0.11,0.2-0.2,0.29-0.26c0.1-0.06,0.22-0.1,0.36-0.1v0.65
		c-0.05-0.02-0.1-0.04-0.15-0.04s-0.11,0.01-0.17,0.03s-0.11,0.06-0.16,0.11c-0.05,0.05-0.09,0.12-0.13,0.2
		c-0.03,0.08-0.05,0.19-0.05,0.31v1.81H41.24z"/>
	<path class="st3" d="M44,50.84h-0.97v0.41c0,0.1,0.02,0.17,0.06,0.22c0.04,0.05,0.1,0.08,0.18,0.08c0.09,0,0.15-0.03,0.19-0.1
		s0.05-0.14,0.06-0.2H44c0,0.27-0.07,0.48-0.2,0.65c-0.06,0.08-0.14,0.15-0.23,0.2s-0.19,0.07-0.3,0.07c-0.15,0-0.29-0.04-0.39-0.12
		c-0.11-0.08-0.19-0.19-0.25-0.32c-0.04-0.08-0.06-0.17-0.07-0.28c-0.01-0.1-0.02-0.22-0.02-0.34v-1c0-0.12,0.01-0.24,0.02-0.34
		c0.01-0.1,0.04-0.2,0.07-0.28c0.06-0.13,0.14-0.24,0.25-0.32c0.11-0.08,0.24-0.12,0.39-0.12c0.11,0,0.21,0.02,0.31,0.07
		c0.09,0.05,0.17,0.11,0.23,0.2C43.94,49.5,44,49.72,44,50V50.84z M43.03,50.36h0.48v-0.35c0-0.12-0.02-0.2-0.07-0.26
		s-0.1-0.09-0.18-0.09c-0.07,0-0.13,0.03-0.18,0.09s-0.06,0.15-0.06,0.26V50.36z"/>
	<path class="st3" d="M46.19,52.13v-0.31h-0.01c-0.06,0.11-0.13,0.2-0.2,0.26c-0.07,0.06-0.16,0.09-0.28,0.09
		c-0.06,0-0.12-0.01-0.18-0.03c-0.06-0.02-0.12-0.06-0.17-0.12c-0.05-0.06-0.1-0.14-0.13-0.24c-0.03-0.11-0.05-0.24-0.05-0.41
		c0-0.17,0.01-0.32,0.03-0.45s0.06-0.24,0.13-0.33c0.06-0.08,0.14-0.15,0.24-0.19s0.23-0.06,0.38-0.06c0.02,0,0.03,0,0.05,0
		c0.02,0,0.04,0,0.05,0.01s0.04,0.01,0.06,0.01s0.05,0,0.07,0.01v-0.32c0-0.1-0.02-0.19-0.05-0.26c-0.04-0.07-0.1-0.1-0.19-0.1
		c-0.06,0-0.12,0.03-0.18,0.08c-0.05,0.05-0.09,0.13-0.1,0.23h-0.48c0.01-0.27,0.09-0.49,0.22-0.66c0.06-0.08,0.14-0.14,0.23-0.19
		c0.09-0.05,0.19-0.07,0.3-0.07c0.1,0,0.2,0.02,0.29,0.06c0.09,0.04,0.17,0.1,0.24,0.18c0.06,0.08,0.12,0.18,0.15,0.3
		s0.06,0.26,0.06,0.42v2.12H46.19z M46.19,50.82c-0.05-0.01-0.1-0.02-0.14-0.02c-0.11,0-0.2,0.03-0.27,0.09
		c-0.08,0.06-0.11,0.17-0.11,0.34c0,0.12,0.02,0.21,0.07,0.28c0.04,0.07,0.11,0.11,0.19,0.11c0.08,0,0.15-0.03,0.2-0.1
		c0.05-0.07,0.07-0.16,0.07-0.29V50.82z"/>
	<path class="st3" d="M47.05,52.13v-4.27h0.49v1.51h0.01c0.05-0.1,0.12-0.18,0.2-0.23c0.08-0.05,0.16-0.08,0.26-0.08
		c0.12,0,0.21,0.03,0.28,0.08c0.07,0.05,0.12,0.12,0.16,0.2c0.03,0.06,0.05,0.15,0.06,0.25c0.01,0.1,0.01,0.27,0.01,0.49v1.16
		c0,0.17-0.01,0.3-0.02,0.4c-0.01,0.1-0.03,0.18-0.06,0.25c-0.08,0.19-0.23,0.29-0.43,0.29c-0.12,0-0.22-0.03-0.28-0.09
		c-0.06-0.06-0.13-0.13-0.19-0.22v0.28H47.05z M48.03,50.02c0-0.1-0.02-0.18-0.05-0.25c-0.03-0.07-0.1-0.11-0.19-0.11
		c-0.07,0-0.13,0.03-0.18,0.09c-0.05,0.06-0.07,0.14-0.07,0.24v1.18c0,0.11,0.02,0.2,0.07,0.27s0.1,0.1,0.18,0.1
		c0.08,0,0.15-0.04,0.18-0.11s0.06-0.18,0.06-0.3V50.02z"/>
	<path class="st3" d="M48.88,50.1c0-0.12,0.01-0.24,0.02-0.34c0.01-0.1,0.04-0.2,0.07-0.28c0.06-0.13,0.14-0.24,0.25-0.32
		c0.11-0.08,0.24-0.12,0.39-0.12s0.29,0.04,0.39,0.12s0.19,0.19,0.25,0.32c0.04,0.08,0.06,0.17,0.07,0.28
		c0.01,0.1,0.02,0.22,0.02,0.34v1c0,0.12-0.01,0.24-0.02,0.34c-0.01,0.1-0.04,0.2-0.07,0.28c-0.06,0.13-0.14,0.24-0.25,0.32
		s-0.24,0.12-0.39,0.12s-0.29-0.04-0.39-0.12c-0.11-0.08-0.19-0.19-0.25-0.32c-0.04-0.08-0.06-0.17-0.07-0.28
		c-0.01-0.1-0.02-0.22-0.02-0.34V50.1z M49.37,51.2c0,0.12,0.02,0.2,0.06,0.26c0.04,0.06,0.1,0.09,0.18,0.09
		c0.07,0,0.13-0.03,0.18-0.09c0.04-0.06,0.07-0.14,0.07-0.26v-1.19c0-0.12-0.02-0.2-0.07-0.26s-0.1-0.09-0.18-0.09
		c-0.07,0-0.13,0.03-0.18,0.09s-0.06,0.15-0.06,0.26V51.2z"/>
	<path class="st3" d="M52.18,49.08v3.04h-0.49v-0.29h-0.01c-0.05,0.1-0.11,0.17-0.19,0.24c-0.07,0.06-0.17,0.09-0.28,0.09
		c-0.06,0-0.12-0.01-0.18-0.04c-0.06-0.03-0.12-0.07-0.16-0.13c-0.05-0.06-0.09-0.14-0.12-0.23c-0.03-0.09-0.04-0.21-0.04-0.35
		v-2.33h0.49v2.11c0,0.11,0.02,0.2,0.06,0.26c0.04,0.06,0.1,0.1,0.18,0.1c0.09,0,0.16-0.04,0.19-0.11c0.04-0.07,0.05-0.18,0.05-0.31
		v-2.05H52.18z"/>
	<path class="st3" d="M52.58,49.08v-0.92h0.49v0.92h0.3v0.48h-0.3v1.69c0,0.07,0.01,0.13,0.02,0.17c0.01,0.04,0.03,0.07,0.05,0.09
		c0.03,0.02,0.06,0.03,0.09,0.04s0.08,0.01,0.14,0.01v0.58h-0.2c-0.11,0-0.21-0.02-0.28-0.07c-0.08-0.04-0.14-0.1-0.18-0.17
		c-0.04-0.07-0.08-0.15-0.1-0.23c-0.02-0.09-0.03-0.17-0.03-0.25v-1.85h-0.25v-0.48H52.58z"/>
	<path class="st3" d="M54.47,48.47v-0.61h0.49v0.61H54.47z M54.47,52.13v-3.04h0.49v3.04H54.47z"/>
	<path class="st3" d="M55.36,49.08v-0.92h0.49v0.92h0.3v0.48h-0.3v1.69c0,0.07,0.01,0.13,0.02,0.17c0.01,0.04,0.03,0.07,0.05,0.09
		c0.03,0.02,0.06,0.03,0.09,0.04s0.08,0.01,0.14,0.01v0.58h-0.2c-0.11,0-0.21-0.02-0.28-0.07c-0.08-0.04-0.14-0.1-0.18-0.17
		c-0.04-0.07-0.08-0.15-0.1-0.23c-0.02-0.09-0.03-0.17-0.03-0.25v-1.85h-0.25v-0.48H55.36z"/>
	<path class="st3" d="M57.24,52.13v-4.27h0.49v1.52h0.01c0.05-0.1,0.11-0.17,0.19-0.24s0.17-0.09,0.28-0.09
		c0.06,0,0.12,0.01,0.18,0.04c0.06,0.03,0.12,0.07,0.16,0.13s0.09,0.14,0.12,0.23c0.03,0.09,0.04,0.21,0.04,0.35v2.33h-0.49v-2.11
		c0-0.11-0.02-0.2-0.06-0.26s-0.1-0.1-0.18-0.1c-0.09,0-0.16,0.04-0.19,0.11c-0.04,0.07-0.05,0.18-0.05,0.31v2.05H57.24z"/>
	<path class="st3" d="M60.54,50.84h-0.97v0.41c0,0.1,0.02,0.17,0.07,0.22c0.04,0.05,0.1,0.08,0.18,0.08c0.09,0,0.16-0.03,0.19-0.1
		s0.05-0.14,0.06-0.2h0.49c0,0.27-0.07,0.48-0.2,0.65c-0.06,0.08-0.14,0.15-0.23,0.2s-0.19,0.07-0.3,0.07
		c-0.15,0-0.29-0.04-0.39-0.12c-0.11-0.08-0.19-0.19-0.25-0.32c-0.04-0.08-0.06-0.17-0.07-0.28c-0.01-0.1-0.02-0.22-0.02-0.34v-1
		c0-0.12,0.01-0.24,0.02-0.34s0.04-0.2,0.07-0.28c0.06-0.13,0.14-0.24,0.25-0.32c0.11-0.08,0.24-0.12,0.39-0.12
		c0.11,0,0.21,0.02,0.31,0.07c0.09,0.05,0.17,0.11,0.23,0.2c0.13,0.18,0.19,0.41,0.19,0.68V50.84z M59.57,50.36h0.48v-0.35
		c0-0.12-0.02-0.2-0.07-0.26c-0.04-0.06-0.1-0.09-0.18-0.09s-0.13,0.03-0.18,0.09c-0.04,0.06-0.07,0.15-0.07,0.26V50.36z"/>
	<path class="st3" d="M60.91,52.13v-3.04h0.49v0.32c0.1-0.11,0.2-0.2,0.29-0.26c0.1-0.06,0.21-0.1,0.36-0.1v0.65
		c-0.05-0.02-0.1-0.04-0.15-0.04s-0.11,0.01-0.17,0.03c-0.06,0.02-0.11,0.06-0.16,0.11c-0.05,0.05-0.09,0.12-0.12,0.2
		c-0.03,0.08-0.05,0.19-0.05,0.31v1.81H60.91z"/>
	<path class="st3" d="M63.67,50.84H62.7v0.41c0,0.1,0.02,0.17,0.07,0.22c0.04,0.05,0.1,0.08,0.18,0.08c0.09,0,0.16-0.03,0.19-0.1
		s0.05-0.14,0.06-0.2h0.49c0,0.27-0.07,0.48-0.2,0.65c-0.06,0.08-0.14,0.15-0.23,0.2s-0.19,0.07-0.3,0.07
		c-0.15,0-0.29-0.04-0.39-0.12c-0.11-0.08-0.19-0.19-0.25-0.32c-0.04-0.08-0.06-0.17-0.07-0.28c-0.01-0.1-0.02-0.22-0.02-0.34v-1
		c0-0.12,0.01-0.24,0.02-0.34s0.04-0.2,0.07-0.28c0.06-0.13,0.14-0.24,0.25-0.32c0.11-0.08,0.24-0.12,0.39-0.12
		c0.11,0,0.21,0.02,0.31,0.07c0.09,0.05,0.17,0.11,0.23,0.2c0.13,0.18,0.19,0.41,0.19,0.68V50.84z M62.7,50.36h0.48v-0.35
		c0-0.12-0.02-0.2-0.07-0.26c-0.04-0.06-0.1-0.09-0.18-0.09s-0.13,0.03-0.18,0.09c-0.04,0.06-0.07,0.15-0.07,0.26V50.36z"/>
	<path class="st3" d="M64.29,51.07l-0.19-3.22h0.62l-0.19,3.22H64.29z M64.16,52.13v-0.61h0.49v0.61H64.16z"/>
</g>
</svg>
