<?xml version="1.0" encoding="utf-8"?>
<!-- Generator: Adobe Illustrator 25.3.1, SVG Export Plug-In . SVG Version: 6.00 Build 0)  -->
<svg version="1.1" id="Layer_1" xmlns="http://www.w3.org/2000/svg" xmlns:xlink="http://www.w3.org/1999/xlink" x="0px" y="0px"
	 viewBox="0 0 100 100" style="enable-background:new 0 0 100 100;" xml:space="preserve">
<style type="text/css">
	.st0{fill:#FCC240;stroke:#FCC242;stroke-miterlimit:10;}
	.st1{fill:#F8D892;stroke:#F8D892;stroke-miterlimit:10;}
	.st2{fill:#B1674A;stroke:#B1674A;stroke-miterlimit:10;}
	.st3{fill:#FCC240;}
</style>
<circle class="st0" cx="56.34" cy="26.83" r="13.86"/>
<circle class="st0" cx="36.2" cy="30.69" r="13.86"/>
<circle class="st0" cx="25.61" cy="48.6" r="13.86"/>
<circle class="st0" cx="35.16" cy="69.23" r="13.86"/>
<ellipse class="st0" cx="56.88" cy="76.16" rx="14.41" ry="12.62"/>
<circle class="st0" cx="73.81" cy="64.42" r="13.86"/>
<circle class="st0" cx="74.58" cy="40.69" r="13.86"/>
<circle class="st1" cx="56.34" cy="26.83" r="10.59"/>
<circle class="st1" cx="73.81" cy="40.89" r="10.59"/>
<circle class="st1" cx="73.81" cy="63.61" r="10.59"/>
<circle class="st1" cx="56.34" cy="75.35" r="10.59"/>
<circle class="st1" cx="35.16" cy="69.23" r="10.59"/>
<circle class="st1" cx="26.94" cy="48.6" r="10.59"/>
<circle class="st1" cx="36.2" cy="30.3" r="10.59"/>
<circle class="st2" cx="51.08" cy="50.56" r="16.73"/>
<g>
	<path class="st3" d="M38.91,50v-6.41h0.59v2.75h0.73v-2.75h0.59V50h-0.59v-2.85h-0.73V50H38.91z"/>
	<path class="st3" d="M42.49,50v-0.47h-0.01c-0.08,0.17-0.16,0.3-0.24,0.39s-0.19,0.13-0.33,0.13c-0.07,0-0.14-0.02-0.21-0.05
		c-0.07-0.03-0.14-0.09-0.21-0.18c-0.07-0.08-0.12-0.21-0.16-0.37c-0.04-0.16-0.06-0.36-0.06-0.62c0-0.26,0.01-0.48,0.04-0.68
		c0.03-0.19,0.08-0.36,0.15-0.49c0.07-0.13,0.17-0.22,0.29-0.28c0.12-0.06,0.27-0.09,0.46-0.09c0.02,0,0.04,0,0.06,0
		c0.02,0,0.04,0,0.06,0.01s0.04,0.01,0.07,0.01s0.06,0,0.09,0.01v-0.48c0-0.16-0.02-0.28-0.06-0.39c-0.04-0.1-0.12-0.15-0.23-0.15
		c-0.08,0-0.15,0.04-0.21,0.12c-0.06,0.08-0.11,0.19-0.13,0.34h-0.58c0.02-0.41,0.1-0.74,0.27-0.99c0.08-0.12,0.17-0.21,0.28-0.28
		c0.11-0.07,0.23-0.1,0.37-0.1c0.12,0,0.24,0.03,0.35,0.09c0.11,0.06,0.2,0.15,0.29,0.27c0.08,0.12,0.14,0.27,0.19,0.45
		c0.05,0.18,0.07,0.39,0.07,0.63V50H42.49z M42.49,48.04c-0.07-0.02-0.12-0.03-0.16-0.03c-0.13,0-0.24,0.05-0.33,0.14
		s-0.14,0.26-0.14,0.51c0,0.17,0.03,0.31,0.08,0.42c0.05,0.11,0.13,0.16,0.23,0.16c0.1,0,0.18-0.05,0.24-0.15
		c0.06-0.1,0.08-0.25,0.08-0.43V48.04z"/>
	<path class="st3" d="M45.33,45.44L44.56,50h-0.52l-0.77-4.56h0.63l0.4,2.92h0.01l0.4-2.92H45.33z"/>
	<path class="st3" d="M47.29,48.07h-1.18v0.62c0,0.14,0.03,0.26,0.08,0.33c0.05,0.08,0.12,0.12,0.21,0.12
		c0.11,0,0.19-0.05,0.22-0.15c0.04-0.1,0.06-0.2,0.07-0.31h0.59c0,0.4-0.08,0.73-0.24,0.97c-0.08,0.13-0.17,0.22-0.28,0.3
		c-0.11,0.07-0.23,0.11-0.37,0.11c-0.19,0-0.34-0.06-0.47-0.18c-0.13-0.12-0.23-0.28-0.3-0.48c-0.04-0.12-0.07-0.26-0.09-0.41
		c-0.02-0.16-0.02-0.33-0.02-0.51v-1.5c0-0.19,0.01-0.36,0.02-0.51c0.02-0.16,0.04-0.29,0.09-0.41c0.07-0.2,0.17-0.36,0.3-0.48
		c0.13-0.12,0.29-0.18,0.47-0.18c0.14,0,0.26,0.04,0.37,0.11c0.11,0.07,0.21,0.17,0.28,0.3c0.16,0.27,0.23,0.61,0.23,1.02V48.07z
		 M46.11,47.34h0.58v-0.52c0-0.17-0.03-0.3-0.08-0.39s-0.12-0.13-0.21-0.13s-0.16,0.04-0.21,0.13s-0.08,0.22-0.08,0.39V47.34z"/>
	<path class="st3" d="M49.93,50v-0.47h-0.01c-0.08,0.17-0.16,0.3-0.24,0.39s-0.19,0.13-0.33,0.13c-0.07,0-0.14-0.02-0.21-0.05
		c-0.07-0.03-0.14-0.09-0.21-0.18c-0.07-0.08-0.12-0.21-0.16-0.37c-0.04-0.16-0.06-0.36-0.06-0.62c0-0.26,0.01-0.48,0.04-0.68
		c0.03-0.19,0.08-0.36,0.15-0.49c0.07-0.13,0.17-0.22,0.29-0.28c0.12-0.06,0.27-0.09,0.46-0.09c0.02,0,0.04,0,0.06,0
		c0.02,0,0.04,0,0.06,0.01s0.04,0.01,0.07,0.01s0.06,0,0.09,0.01v-0.48c0-0.16-0.02-0.28-0.06-0.39c-0.04-0.1-0.12-0.15-0.23-0.15
		c-0.08,0-0.15,0.04-0.21,0.12c-0.06,0.08-0.11,0.19-0.13,0.34h-0.58c0.02-0.41,0.1-0.74,0.27-0.99c0.08-0.12,0.17-0.21,0.28-0.28
		c0.11-0.07,0.23-0.1,0.37-0.1c0.12,0,0.24,0.03,0.35,0.09c0.11,0.06,0.2,0.15,0.29,0.27c0.08,0.12,0.14,0.27,0.19,0.45
		c0.05,0.18,0.07,0.39,0.07,0.63V50H49.93z M49.93,48.04c-0.07-0.02-0.12-0.03-0.16-0.03c-0.13,0-0.24,0.05-0.33,0.14
		s-0.14,0.26-0.14,0.51c0,0.17,0.03,0.31,0.08,0.42c0.05,0.11,0.13,0.16,0.23,0.16c0.1,0,0.18-0.05,0.24-0.15
		c0.06-0.1,0.08-0.25,0.08-0.43V48.04z"/>
	<path class="st3" d="M52.01,43.59h0.59v5.12c0,0.17,0.02,0.29,0.06,0.36c0.04,0.06,0.12,0.1,0.23,0.12v0.86
		c-0.14,0-0.26-0.02-0.37-0.05c-0.11-0.03-0.2-0.1-0.28-0.19c-0.08-0.09-0.14-0.22-0.18-0.38s-0.06-0.38-0.06-0.65V43.59z"/>
	<path class="st3" d="M53.08,46.97c0-0.19,0.01-0.36,0.02-0.51s0.04-0.29,0.09-0.41c0.07-0.2,0.17-0.36,0.3-0.48
		c0.13-0.12,0.29-0.18,0.47-0.18s0.34,0.06,0.47,0.18s0.23,0.28,0.3,0.48c0.04,0.12,0.07,0.26,0.09,0.41s0.02,0.33,0.02,0.51v1.5
		c0,0.19-0.01,0.36-0.02,0.51c-0.02,0.16-0.04,0.29-0.09,0.41c-0.07,0.2-0.17,0.36-0.3,0.48s-0.29,0.18-0.47,0.18
		s-0.34-0.06-0.47-0.18c-0.13-0.12-0.23-0.28-0.3-0.48c-0.04-0.12-0.07-0.26-0.09-0.41c-0.02-0.16-0.02-0.33-0.02-0.51V46.97z
		 M53.67,48.61c0,0.17,0.03,0.3,0.08,0.39c0.05,0.09,0.12,0.13,0.21,0.13c0.09,0,0.16-0.04,0.21-0.13c0.05-0.09,0.08-0.22,0.08-0.39
		v-1.79c0-0.17-0.03-0.3-0.08-0.39c-0.05-0.09-0.12-0.13-0.21-0.13c-0.09,0-0.16,0.04-0.21,0.13c-0.05,0.09-0.08,0.22-0.08,0.39
		V48.61z"/>
	<path class="st3" d="M55.23,46.97c0-0.19,0.01-0.36,0.02-0.51s0.04-0.29,0.09-0.41c0.07-0.2,0.17-0.36,0.3-0.48
		c0.13-0.12,0.29-0.18,0.48-0.18s0.34,0.06,0.47,0.18s0.23,0.28,0.3,0.48c0.04,0.12,0.07,0.26,0.09,0.41S57,46.78,57,46.97v1.5
		c0,0.19-0.01,0.36-0.02,0.51c-0.02,0.16-0.04,0.29-0.09,0.41c-0.07,0.2-0.17,0.36-0.3,0.48s-0.29,0.18-0.47,0.18
		s-0.34-0.06-0.48-0.18c-0.13-0.12-0.23-0.28-0.3-0.48c-0.04-0.12-0.07-0.26-0.09-0.41c-0.02-0.16-0.02-0.33-0.02-0.51V46.97z
		 M55.83,48.61c0,0.17,0.03,0.3,0.08,0.39s0.12,0.13,0.21,0.13c0.09,0,0.16-0.04,0.21-0.13c0.05-0.09,0.08-0.22,0.08-0.39v-1.79
		c0-0.17-0.03-0.3-0.08-0.39c-0.05-0.09-0.12-0.13-0.21-0.13c-0.09,0-0.16,0.04-0.21,0.13s-0.08,0.22-0.08,0.39V48.61z"/>
	<path class="st3" d="M57.44,50v-6.41h0.59v3.83h0.01l0.72-1.99h0.59l-0.71,1.85L59.5,50h-0.65l-0.54-1.97l-0.29,0.69V50H57.44z"/>
	<path class="st3" d="M61.92,50v-0.47H61.9c-0.08,0.17-0.16,0.3-0.24,0.39c-0.08,0.09-0.19,0.13-0.33,0.13
		c-0.07,0-0.14-0.02-0.21-0.05c-0.07-0.03-0.14-0.09-0.21-0.18c-0.07-0.08-0.12-0.21-0.16-0.37c-0.04-0.16-0.06-0.36-0.06-0.62
		c0-0.26,0.01-0.48,0.04-0.68c0.03-0.19,0.08-0.36,0.15-0.49c0.07-0.13,0.17-0.22,0.29-0.28c0.12-0.06,0.27-0.09,0.46-0.09
		c0.02,0,0.04,0,0.06,0s0.04,0,0.06,0.01s0.04,0.01,0.07,0.01c0.03,0,0.06,0,0.09,0.01v-0.48c0-0.16-0.02-0.28-0.06-0.39
		c-0.04-0.1-0.12-0.15-0.23-0.15c-0.08,0-0.15,0.04-0.21,0.12c-0.06,0.08-0.11,0.19-0.12,0.34H60.7c0.02-0.41,0.1-0.74,0.27-0.99
		c0.08-0.12,0.17-0.21,0.28-0.28c0.11-0.07,0.23-0.1,0.37-0.1c0.12,0,0.24,0.03,0.35,0.09c0.11,0.06,0.2,0.15,0.29,0.27
		c0.08,0.12,0.14,0.27,0.19,0.45c0.05,0.18,0.07,0.39,0.07,0.63V50H61.92z M61.92,48.04c-0.07-0.02-0.12-0.03-0.16-0.03
		c-0.13,0-0.24,0.05-0.33,0.14c-0.09,0.09-0.14,0.26-0.14,0.51c0,0.17,0.03,0.31,0.08,0.42s0.13,0.16,0.23,0.16
		c0.1,0,0.18-0.05,0.24-0.15c0.06-0.1,0.08-0.25,0.08-0.43V48.04z"/>
	<path class="st3" d="M62.95,45.44v-1.39h0.59v1.39h0.37v0.72h-0.37v2.53c0,0.11,0.01,0.19,0.02,0.25c0.01,0.06,0.04,0.1,0.07,0.13
		c0.03,0.03,0.07,0.05,0.11,0.05s0.1,0.01,0.17,0.01V50h-0.25c-0.14,0-0.25-0.03-0.34-0.1c-0.09-0.07-0.16-0.15-0.22-0.25
		c-0.05-0.1-0.09-0.22-0.12-0.35s-0.04-0.25-0.04-0.37v-2.77h-0.3v-0.72H62.95z"/>
	<path class="st3" d="M45.38,55.31v-0.92h0.59v0.92H45.38z M45.38,60.8v-4.56h0.59v4.56H45.38z"/>
	<path class="st3" d="M46.46,56.24v-1.39h0.59v1.39h0.37v0.72h-0.37v2.53c0,0.11,0.01,0.19,0.02,0.25c0.01,0.06,0.04,0.1,0.07,0.13
		s0.07,0.05,0.11,0.05c0.04,0.01,0.1,0.01,0.17,0.01v0.86h-0.24c-0.14,0-0.25-0.03-0.34-0.1c-0.09-0.07-0.16-0.15-0.22-0.25
		c-0.05-0.1-0.09-0.22-0.12-0.35c-0.03-0.13-0.04-0.25-0.04-0.37v-2.77h-0.3v-0.72H46.46z"/>
	<path class="st3" d="M48.74,60.8v-6.41h0.59v2.29h0.01c0.06-0.14,0.14-0.26,0.22-0.36s0.2-0.14,0.34-0.14
		c0.07,0,0.15,0.02,0.22,0.06c0.07,0.04,0.14,0.1,0.2,0.19s0.1,0.21,0.14,0.35s0.05,0.31,0.05,0.52v3.5h-0.59v-3.16
		c0-0.17-0.02-0.3-0.08-0.4c-0.05-0.1-0.12-0.14-0.22-0.14c-0.11,0-0.19,0.05-0.23,0.16c-0.04,0.11-0.06,0.26-0.06,0.47v3.07H48.74z
		"/>
	<path class="st3" d="M52.72,58.87h-1.18v0.62c0,0.14,0.03,0.26,0.08,0.33c0.05,0.08,0.12,0.12,0.21,0.12
		c0.11,0,0.19-0.05,0.22-0.15c0.04-0.1,0.06-0.2,0.07-0.31h0.59c0,0.4-0.08,0.73-0.24,0.97c-0.08,0.13-0.17,0.22-0.28,0.3
		c-0.11,0.07-0.23,0.11-0.37,0.11c-0.19,0-0.34-0.06-0.47-0.18c-0.13-0.12-0.23-0.28-0.3-0.48c-0.04-0.12-0.07-0.26-0.09-0.41
		c-0.02-0.16-0.02-0.33-0.02-0.51v-1.5c0-0.19,0.01-0.36,0.02-0.51s0.04-0.29,0.09-0.41c0.07-0.2,0.17-0.36,0.3-0.48
		c0.13-0.12,0.29-0.18,0.47-0.18c0.14,0,0.26,0.04,0.37,0.11c0.11,0.07,0.21,0.17,0.28,0.3c0.16,0.27,0.23,0.61,0.23,1.02V58.87z
		 M51.54,58.14h0.58v-0.52c0-0.17-0.03-0.3-0.08-0.39c-0.05-0.09-0.12-0.13-0.21-0.13c-0.09,0-0.16,0.04-0.21,0.13
		c-0.05,0.09-0.08,0.22-0.08,0.39V58.14z"/>
	<path class="st3" d="M53.16,60.8v-4.56h0.59v0.49c0.12-0.17,0.24-0.3,0.36-0.4c0.12-0.1,0.26-0.14,0.43-0.14v0.97
		c-0.06-0.04-0.12-0.05-0.18-0.05s-0.13,0.02-0.2,0.05c-0.07,0.03-0.14,0.09-0.19,0.17c-0.06,0.08-0.11,0.18-0.15,0.31
		c-0.04,0.13-0.06,0.28-0.06,0.47v2.71H53.16z"/>
	<path class="st3" d="M56.5,58.87h-1.18v0.62c0,0.14,0.03,0.26,0.08,0.33c0.05,0.08,0.12,0.12,0.21,0.12c0.11,0,0.19-0.05,0.22-0.15
		c0.04-0.1,0.06-0.2,0.07-0.31h0.59c0,0.4-0.08,0.73-0.24,0.97c-0.08,0.13-0.17,0.22-0.28,0.3c-0.11,0.07-0.23,0.11-0.37,0.11
		c-0.19,0-0.34-0.06-0.48-0.18c-0.13-0.12-0.23-0.28-0.3-0.48c-0.04-0.12-0.07-0.26-0.09-0.41c-0.02-0.16-0.02-0.33-0.02-0.51v-1.5
		c0-0.19,0.01-0.36,0.02-0.51s0.04-0.29,0.09-0.41c0.07-0.2,0.17-0.36,0.3-0.48c0.13-0.12,0.29-0.18,0.48-0.18
		c0.14,0,0.26,0.04,0.37,0.11c0.11,0.07,0.2,0.17,0.28,0.3c0.16,0.27,0.23,0.61,0.23,1.02V58.87z M55.32,58.14h0.58v-0.52
		c0-0.17-0.03-0.3-0.08-0.39c-0.05-0.09-0.12-0.13-0.21-0.13c-0.09,0-0.16,0.04-0.21,0.13s-0.08,0.22-0.08,0.39V58.14z"/>
	<path class="st3" d="M57.24,59.22l-0.23-4.82h0.75l-0.23,4.82H57.24z M57.09,60.8v-0.92h0.59v0.92H57.09z"/>
</g>
</svg>
