<?xml version="1.0" encoding="utf-8"?>
<!-- Generator: Adobe Illustrator 25.3.1, SVG Export Plug-In . SVG Version: 6.00 Build 0)  -->
<svg version="1.1" id="Layer_1" xmlns="http://www.w3.org/2000/svg" xmlns:xlink="http://www.w3.org/1999/xlink" x="0px" y="0px"
	 viewBox="0 0 283.46 283.46" style="enable-background:new 0 0 283.46 283.46;" xml:space="preserve">
<style type="text/css">
	.st0{fill:#F1891E;stroke:#F1891E;stroke-miterlimit:10;}
	.st1{fill:#FCC242;stroke:#FCC242;stroke-miterlimit:10;}
	.st2{fill:#B1674A;stroke:#B1674A;stroke-miterlimit:10;}
	.st3{fill:#B1674A;stroke:#FBF3DD;stroke-width:2;stroke-miterlimit:10;}
	.st4{fill:#FBF3DD;stroke:#FBF3DD;stroke-width:2;stroke-miterlimit:10;}
	.st5{fill:#FBF3DD;}
</style>
<ellipse class="st0" cx="159.94" cy="98.09" rx="29.21" ry="29.56"/>
<ellipse class="st0" cx="117.5" cy="106.32" rx="29.21" ry="29.56"/>
<ellipse class="st0" cx="95.19" cy="144.53" rx="29.21" ry="29.56"/>
<ellipse class="st0" cx="115.31" cy="188.51" rx="29.21" ry="29.56"/>
<ellipse class="st0" cx="161.09" cy="203.3" rx="30.36" ry="26.91"/>
<ellipse class="st0" cx="196.76" cy="178.26" rx="29.21" ry="29.56"/>
<ellipse class="st0" cx="198.39" cy="127.66" rx="29.21" ry="29.56"/>
<ellipse class="st1" cx="159.94" cy="98.09" rx="22.31" ry="22.58"/>
<ellipse class="st1" cx="196.76" cy="128.09" rx="22.31" ry="22.58"/>
<ellipse class="st1" cx="196.76" cy="176.52" rx="22.31" ry="22.58"/>
<ellipse class="st1" cx="159.94" cy="201.57" rx="22.31" ry="22.58"/>
<ellipse class="st1" cx="115.31" cy="188.51" rx="22.31" ry="22.58"/>
<ellipse class="st1" cx="98" cy="144.53" rx="22.31" ry="22.58"/>
<ellipse class="st1" cx="117.5" cy="105.51" rx="22.31" ry="22.58"/>
<ellipse class="st2" cx="148.86" cy="148.7" rx="35.25" ry="35.67"/>
<circle class="st3" cx="148.86" cy="148.7" r="21.96"/>
<ellipse class="st4" cx="149.43" cy="146.83" rx="11.23" ry="8.12"/>
<path class="st2" d="M139.99,136.63"/>
<path class="st4" d="M143.82,140.36c-1.99-2.73-3.27-3.97-3.83-3.7c-0.68,0.32-0.33,2.83,1.06,7.53"/>
<path class="st4" d="M155.17,140.36c1.99-2.73,3.27-3.97,3.83-3.7c0.68,0.32,0.33,2.83-1.06,7.53"/>
<ellipse class="st4" cx="149.9" cy="162.58" rx="4.17" ry="8.08"/>
<path class="st4" d="M137.54,159.48"/>
<path class="st5" d="M147.79,164.46c-7.16-6.27-9.13-7.26-9.51-6.9c-0.49,0.46,1.4,3.29,2.63,4.83c2.23,2.78,4.77,4.39,6.44,5.27"/>
</svg>
