<?xml version="1.0" encoding="utf-8"?>
<!-- Generator: Adobe Illustrator 25.3.1, SVG Export Plug-In . SVG Version: 6.00 Build 0)  -->
<svg version="1.1" id="Layer_1" xmlns="http://www.w3.org/2000/svg" xmlns:xlink="http://www.w3.org/1999/xlink" x="0px" y="0px"
	 viewBox="0 0 283.46 283.46" style="enable-background:new 0 0 283.46 283.46;" xml:space="preserve">
<style type="text/css">
	.st0{fill:#FCC240;stroke:#FCC242;stroke-miterlimit:10;}
	.st1{fill:#F8D892;stroke:#F8D892;stroke-miterlimit:10;}
	.st2{fill:#B1674A;stroke:#B1674A;stroke-miterlimit:10;}
	.st3{fill:none;stroke:#FBF3DD;stroke-width:2;stroke-miterlimit:10;}
	.st4{fill:#FBF3DD;stroke:#FBF3DD;stroke-miterlimit:10;}
</style>
<ellipse class="st0" cx="154.05" cy="93.65" rx="27.37" ry="27.72"/>
<ellipse class="st0" cx="114.29" cy="101.37" rx="27.37" ry="27.72"/>
<ellipse class="st0" cx="93.38" cy="137.19" rx="27.37" ry="27.72"/>
<ellipse class="st0" cx="112.24" cy="178.43" rx="27.37" ry="27.72"/>
<ellipse class="st0" cx="155.13" cy="192.3" rx="28.45" ry="25.24"/>
<ellipse class="st0" cx="188.56" cy="168.82" rx="27.37" ry="27.72"/>
<ellipse class="st0" cx="190.08" cy="121.37" rx="27.37" ry="27.72"/>
<ellipse class="st1" cx="154.05" cy="93.65" rx="20.91" ry="21.17"/>
<ellipse class="st1" cx="188.56" cy="121.78" rx="20.91" ry="21.17"/>
<ellipse class="st1" cx="188.56" cy="167.19" rx="20.91" ry="21.17"/>
<ellipse class="st1" cx="154.05" cy="190.68" rx="20.91" ry="21.17"/>
<ellipse class="st1" cx="112.24" cy="178.43" rx="20.91" ry="21.17"/>
<ellipse class="st1" cx="96.01" cy="137.19" rx="20.91" ry="21.17"/>
<ellipse class="st1" cx="114.29" cy="100.61" rx="20.91" ry="21.17"/>
<ellipse class="st2" cx="143.67" cy="141.1" rx="33.03" ry="33.45"/>
<path class="st3" d="M157.76,160.23h-27.11c-3.28,0-5.94-2.66-5.94-5.94v-25.11c0-3.28,2.66-5.94,5.94-5.94h27.11
	c3.28,0,5.94,2.66,5.94,5.94v25.11C163.7,157.57,161.04,160.23,157.76,160.23z"/>
<circle class="st3" cx="144.2" cy="141.1" r="8.62"/>
<circle class="st4" cx="158.16" cy="129.09" r="3.03"/>
</svg>
