<?xml version="1.0" encoding="utf-8"?>
<!-- Generator: Adobe Illustrator 25.3.1, SVG Export Plug-In . SVG Version: 6.00 Build 0)  -->
<svg version="1.1" id="Layer_1" xmlns="http://www.w3.org/2000/svg" xmlns:xlink="http://www.w3.org/1999/xlink" x="0px" y="0px"
	 viewBox="0 0 283.46 283.46" style="enable-background:new 0 0 283.46 283.46;" xml:space="preserve">
<style type="text/css">
	.st0{fill:#FCC240;stroke:#FCC242;stroke-miterlimit:10;}
	.st1{fill:#F8D892;stroke:#F8D892;stroke-miterlimit:10;}
	.st2{fill:#B1674A;stroke:#B1674A;stroke-miterlimit:10;}
	.st3{fill:none;stroke:#FBF3DD;stroke-miterlimit:10;}
</style>
<ellipse class="st0" cx="154.26" cy="85.26" rx="29.97" ry="29.79"/>
<ellipse class="st0" cx="110.73" cy="93.55" rx="29.97" ry="29.79"/>
<ellipse class="st0" cx="87.84" cy="132.05" rx="29.97" ry="29.79"/>
<ellipse class="st0" cx="108.48" cy="176.36" rx="29.97" ry="29.79"/>
<ellipse class="st0" cx="155.44" cy="191.26" rx="31.15" ry="27.12"/>
<ellipse class="st0" cx="192.03" cy="166.04" rx="29.97" ry="29.79"/>
<ellipse class="st0" cx="193.7" cy="115.04" rx="29.97" ry="29.79"/>
<ellipse class="st1" cx="154.26" cy="85.26" rx="22.89" ry="22.75"/>
<ellipse class="st1" cx="192.03" cy="115.48" rx="22.89" ry="22.75"/>
<ellipse class="st1" cx="192.03" cy="164.28" rx="22.89" ry="22.75"/>
<ellipse class="st1" cx="154.26" cy="189.52" rx="22.89" ry="22.75"/>
<ellipse class="st1" cx="108.48" cy="176.36" rx="22.89" ry="22.75"/>
<ellipse class="st1" cx="90.71" cy="132.05" rx="22.89" ry="22.75"/>
<ellipse class="st1" cx="110.73" cy="92.73" rx="22.89" ry="22.75"/>
<ellipse class="st2" cx="142.89" cy="136.25" rx="36.16" ry="35.95"/>
<path class="st3" d="M161.36,148.91h-35.78c-1.82,0-3.29-1.47-3.29-3.29v-18.75c0-1.82,1.47-3.29,3.29-3.29h35.78
	c1.82,0,3.29,1.47,3.29,3.29v18.75C164.65,147.44,163.18,148.91,161.36,148.91z"/>
<line class="st3" x1="123.08" y1="147.76" x2="139.96" y2="138.23"/>
<polyline class="st3" points="123.08,124.74 143.47,141.73 163.73,124.59 "/>
<line class="st3" x1="163.87" y1="147.76" x2="147" y2="138.23"/>
</svg>
