<?xml version="1.0" encoding="utf-8"?>
<!-- Generator: Adobe Illustrator 25.3.1, SVG Export Plug-In . SVG Version: 6.00 Build 0)  -->
<svg version="1.1" xmlns="http://www.w3.org/2000/svg" xmlns:xlink="http://www.w3.org/1999/xlink" x="0px" y="0px"
	 viewBox="0 0 1920 1080" style="enable-background:new 0 0 1920 1080;" xml:space="preserve">
<style type="text/css">
	.st0{fill:#B1674A;}
	.st1{fill:#FF9933;}
	.st2{fill:#FCC242;}
	.st3{fill:#F8D893;}
	.st4{fill:#FBF3DD;}
</style>
<g id="Layer_1">
	<g>
		<rect x="0.5" y="0.5" class="st0" width="1919" height="1079"/>
		<path class="st0" d="M1919,1v1078H1V1H1919 M1920,0H0v1080h1920V0L1920,0z"/>
	</g>
</g>
<g id="Layer_2">
	<g>
		<g>
			<circle class="st0" cx="128" cy="128" r="127.5"/>
			<path class="st0" d="M128,1c33.92,0,65.82,13.21,89.8,37.2S255,94.08,255,128s-13.21,65.82-37.2,89.8S161.92,255,128,255
				s-65.82-13.21-89.8-37.2S1,161.92,1,128s13.21-65.82,37.2-89.8S94.08,1,128,1 M128,0C57.31,0,0,57.31,0,128s57.31,128,128,128
				s128-57.31,128-128S198.69,0,128,0L128,0z"/>
		</g>
		<g>
			<circle class="st1" cx="128" cy="144" r="111.5"/>
			<g>
				<path class="st1" d="M128,33c29.65,0,57.52,11.55,78.49,32.51C227.45,86.48,239,114.35,239,144s-11.55,57.52-32.51,78.49
					S157.65,255,128,255s-57.52-11.55-78.49-32.51C28.55,201.52,17,173.65,17,144s11.55-57.52,32.51-78.49
					C70.48,44.55,98.35,33,128,33 M128,32C66.14,32,16,82.14,16,144s50.14,112,112,112s112-50.14,112-112S189.86,32,128,32L128,32z"
					/>
			</g>
		</g>
		<g>
			<circle class="st2" cx="127.5" cy="163.5" r="92"/>
			<path class="st2" d="M127.5,72c50.45,0,91.5,41.05,91.5,91.5S177.95,255,127.5,255S36,213.95,36,163.5S77.05,72,127.5,72
				 M127.5,71C76.41,71,35,112.41,35,163.5S76.41,256,127.5,256s92.5-41.41,92.5-92.5S178.59,71,127.5,71L127.5,71z"/>
		</g>
		<g>
			<circle class="st3" cx="128" cy="186" r="69.5"/>
			<path class="st3" d="M128,117c38.05,0,69,30.95,69,69s-30.95,69-69,69s-69-30.95-69-69S89.95,117,128,117 M128,116
				c-38.66,0-70,31.34-70,70s31.34,70,70,70s70-31.34,70-70S166.66,116,128,116L128,116z"/>
		</g>
		<g>
			<circle class="st4" cx="128" cy="203" r="52.5"/>
			<path class="st4" d="M128,151c28.67,0,52,23.33,52,52s-23.33,52-52,52s-52-23.33-52-52S99.33,151,128,151 M128,150
				c-29.27,0-53,23.73-53,53s23.73,53,53,53s53-23.73,53-53S157.27,150,128,150L128,150z"/>
		</g>
	</g>
	<g>
		<g>
			<circle class="st0" cx="384" cy="128" r="127.5"/>
			<path class="st0" d="M384,1c33.92,0,65.82,13.21,89.8,37.2C497.79,62.18,511,94.08,511,128s-13.21,65.82-37.2,89.8
				C449.82,241.79,417.92,255,384,255c-33.92,0-65.82-13.21-89.8-37.2C270.21,193.82,257,161.92,257,128s13.21-65.82,37.2-89.8
				C318.18,14.21,350.08,1,384,1 M384,0c-70.69,0-128,57.31-128,128s57.31,128,128,128c70.69,0,128-57.31,128-128S454.69,0,384,0
				L384,0z"/>
		</g>
		<g>
			<circle class="st1" cx="384" cy="144" r="111.5"/>
			<g>
				<path class="st1" d="M384,33c29.65,0,57.52,11.55,78.49,32.51C483.45,86.48,495,114.35,495,144s-11.55,57.52-32.51,78.49
					C441.52,243.45,413.65,255,384,255s-57.52-11.55-78.49-32.51C284.55,201.52,273,173.65,273,144s11.55-57.52,32.51-78.49
					C326.48,44.55,354.35,33,384,33 M384,32c-61.86,0-112,50.14-112,112s50.14,112,112,112c61.86,0,112-50.14,112-112
					S445.86,32,384,32L384,32z"/>
			</g>
		</g>
		<g>
			<circle class="st2" cx="383.5" cy="163.5" r="92"/>
			<path class="st2" d="M383.5,72c50.45,0,91.5,41.05,91.5,91.5S433.95,255,383.5,255S292,213.95,292,163.5S333.05,72,383.5,72
				 M383.5,71c-51.09,0-92.5,41.41-92.5,92.5c0,51.09,41.41,92.5,92.5,92.5c51.09,0,92.5-41.41,92.5-92.5
				C476,112.41,434.59,71,383.5,71L383.5,71z"/>
		</g>
		<g>
			<circle class="st3" cx="384" cy="186" r="69.5"/>
			<path class="st3" d="M384,117c38.05,0,69,30.95,69,69s-30.95,69-69,69s-69-30.95-69-69S345.95,117,384,117 M384,116
				c-38.66,0-70,31.34-70,70s31.34,70,70,70c38.66,0,70-31.34,70-70S422.66,116,384,116L384,116z"/>
		</g>
		<g>
			<circle class="st4" cx="384" cy="203" r="52.5"/>
			<path class="st4" d="M384,151c28.67,0,52,23.33,52,52s-23.33,52-52,52s-52-23.33-52-52S355.33,151,384,151 M384,150
				c-29.27,0-53,23.73-53,53c0,29.27,23.73,53,53,53c29.27,0,53-23.73,53-53C437,173.73,413.27,150,384,150L384,150z"/>
		</g>
	</g>
	<g>
		<g>
			<circle class="st0" cx="640" cy="128" r="127.5"/>
			<path class="st0" d="M640,1c33.92,0,65.82,13.21,89.8,37.2C753.79,62.18,767,94.08,767,128s-13.21,65.82-37.2,89.8
				C705.82,241.79,673.92,255,640,255c-33.92,0-65.82-13.21-89.8-37.2C526.21,193.82,513,161.92,513,128s13.21-65.82,37.2-89.8
				C574.18,14.21,606.08,1,640,1 M640,0c-70.69,0-128,57.31-128,128s57.31,128,128,128c70.69,0,128-57.31,128-128S710.69,0,640,0
				L640,0z"/>
		</g>
		<g>
			<circle class="st1" cx="640" cy="144" r="111.5"/>
			<g>
				<path class="st1" d="M640,33c29.65,0,57.52,11.55,78.49,32.51C739.45,86.48,751,114.35,751,144s-11.55,57.52-32.51,78.49
					C697.52,243.45,669.65,255,640,255s-57.52-11.55-78.49-32.51C540.55,201.52,529,173.65,529,144s11.55-57.52,32.51-78.49
					C582.48,44.55,610.35,33,640,33 M640,32c-61.86,0-112,50.14-112,112s50.14,112,112,112c61.86,0,112-50.14,112-112
					S701.86,32,640,32L640,32z"/>
			</g>
		</g>
		<g>
			<circle class="st2" cx="639.5" cy="163.5" r="92"/>
			<path class="st2" d="M639.5,72c50.45,0,91.5,41.05,91.5,91.5S689.95,255,639.5,255S548,213.95,548,163.5S589.05,72,639.5,72
				 M639.5,71c-51.09,0-92.5,41.41-92.5,92.5c0,51.09,41.41,92.5,92.5,92.5c51.09,0,92.5-41.41,92.5-92.5
				C732,112.41,690.59,71,639.5,71L639.5,71z"/>
		</g>
		<g>
			<circle class="st3" cx="640" cy="186" r="69.5"/>
			<path class="st3" d="M640,117c38.05,0,69,30.95,69,69s-30.95,69-69,69s-69-30.95-69-69S601.95,117,640,117 M640,116
				c-38.66,0-70,31.34-70,70s31.34,70,70,70c38.66,0,70-31.34,70-70S678.66,116,640,116L640,116z"/>
		</g>
		<g>
			<circle class="st4" cx="640" cy="203" r="52.5"/>
			<path class="st4" d="M640,151c28.67,0,52,23.33,52,52s-23.33,52-52,52s-52-23.33-52-52S611.33,151,640,151 M640,150
				c-29.27,0-53,23.73-53,53c0,29.27,23.73,53,53,53c29.27,0,53-23.73,53-53C693,173.73,669.27,150,640,150L640,150z"/>
		</g>
	</g>
	<g>
		<g>
			<circle class="st0" cx="896" cy="128" r="127.5"/>
			<path class="st0" d="M896,1c33.92,0,65.82,13.21,89.8,37.2c23.99,23.99,37.2,55.88,37.2,89.8s-13.21,65.82-37.2,89.8
				C961.82,241.79,929.92,255,896,255c-33.92,0-65.82-13.21-89.8-37.2C782.21,193.82,769,161.92,769,128s13.21-65.82,37.2-89.8
				C830.18,14.21,862.08,1,896,1 M896,0c-70.69,0-128,57.31-128,128s57.31,128,128,128c70.69,0,128-57.31,128-128S966.69,0,896,0
				L896,0z"/>
		</g>
		<g>
			<circle class="st1" cx="896" cy="144" r="111.5"/>
			<g>
				<path class="st1" d="M896,33c29.65,0,57.52,11.55,78.49,32.51C995.45,86.48,1007,114.35,1007,144s-11.55,57.52-32.51,78.49
					C953.52,243.45,925.65,255,896,255s-57.52-11.55-78.49-32.51C796.55,201.52,785,173.65,785,144s11.55-57.52,32.51-78.49
					C838.48,44.55,866.35,33,896,33 M896,32c-61.86,0-112,50.14-112,112s50.14,112,112,112c61.86,0,112-50.14,112-112
					S957.86,32,896,32L896,32z"/>
			</g>
		</g>
		<g>
			<circle class="st2" cx="895.5" cy="163.5" r="92"/>
			<path class="st2" d="M895.5,72c50.45,0,91.5,41.05,91.5,91.5S945.95,255,895.5,255S804,213.95,804,163.5S845.05,72,895.5,72
				 M895.5,71c-51.09,0-92.5,41.41-92.5,92.5c0,51.09,41.41,92.5,92.5,92.5c51.09,0,92.5-41.41,92.5-92.5
				C988,112.41,946.59,71,895.5,71L895.5,71z"/>
		</g>
		<g>
			<circle class="st3" cx="896" cy="186" r="69.5"/>
			<path class="st3" d="M896,117c38.05,0,69,30.95,69,69s-30.95,69-69,69s-69-30.95-69-69S857.95,117,896,117 M896,116
				c-38.66,0-70,31.34-70,70s31.34,70,70,70c38.66,0,70-31.34,70-70S934.66,116,896,116L896,116z"/>
		</g>
		<g>
			<circle class="st4" cx="896" cy="203" r="52.5"/>
			<path class="st4" d="M896,151c28.67,0,52,23.33,52,52s-23.33,52-52,52s-52-23.33-52-52S867.33,151,896,151 M896,150
				c-29.27,0-53,23.73-53,53c0,29.27,23.73,53,53,53c29.27,0,53-23.73,53-53C949,173.73,925.27,150,896,150L896,150z"/>
		</g>
	</g>
	<g>
		<g>
			<circle class="st0" cx="1152" cy="128" r="127.5"/>
			<path class="st0" d="M1152,1c33.92,0,65.82,13.21,89.8,37.2c23.99,23.99,37.2,55.88,37.2,89.8s-13.21,65.82-37.2,89.8
				c-23.99,23.99-55.88,37.2-89.8,37.2c-33.92,0-65.82-13.21-89.8-37.2c-23.99-23.99-37.2-55.88-37.2-89.8s13.21-65.82,37.2-89.8
				C1086.18,14.21,1118.08,1,1152,1 M1152,0c-70.69,0-128,57.31-128,128s57.31,128,128,128c70.69,0,128-57.31,128-128
				S1222.69,0,1152,0L1152,0z"/>
		</g>
		<g>
			<circle class="st1" cx="1152" cy="144" r="111.5"/>
			<g>
				<path class="st1" d="M1152,33c29.65,0,57.52,11.55,78.49,32.51C1251.45,86.48,1263,114.35,1263,144s-11.55,57.52-32.51,78.49
					C1209.52,243.45,1181.65,255,1152,255s-57.52-11.55-78.49-32.51C1052.55,201.52,1041,173.65,1041,144s11.55-57.52,32.51-78.49
					C1094.48,44.55,1122.35,33,1152,33 M1152,32c-61.86,0-112,50.14-112,112s50.14,112,112,112c61.86,0,112-50.14,112-112
					S1213.86,32,1152,32L1152,32z"/>
			</g>
		</g>
		<g>
			<circle class="st2" cx="1151.5" cy="163.5" r="92"/>
			<path class="st2" d="M1151.5,72c50.45,0,91.5,41.05,91.5,91.5s-41.05,91.5-91.5,91.5s-91.5-41.05-91.5-91.5S1101.05,72,1151.5,72
				 M1151.5,71c-51.09,0-92.5,41.41-92.5,92.5c0,51.09,41.41,92.5,92.5,92.5c51.09,0,92.5-41.41,92.5-92.5
				C1244,112.41,1202.59,71,1151.5,71L1151.5,71z"/>
		</g>
		<g>
			<circle class="st3" cx="1152" cy="186" r="69.5"/>
			<path class="st3" d="M1152,117c38.05,0,69,30.95,69,69s-30.95,69-69,69s-69-30.95-69-69S1113.95,117,1152,117 M1152,116
				c-38.66,0-70,31.34-70,70s31.34,70,70,70c38.66,0,70-31.34,70-70S1190.66,116,1152,116L1152,116z"/>
		</g>
		<g>
			<circle class="st4" cx="1152" cy="203" r="52.5"/>
			<path class="st4" d="M1152,151c28.67,0,52,23.33,52,52s-23.33,52-52,52s-52-23.33-52-52S1123.33,151,1152,151 M1152,150
				c-29.27,0-53,23.73-53,53c0,29.27,23.73,53,53,53c29.27,0,53-23.73,53-53C1205,173.73,1181.27,150,1152,150L1152,150z"/>
		</g>
	</g>
	<g>
		<g>
			<circle class="st0" cx="1408" cy="128" r="127.5"/>
			<path class="st0" d="M1408,1c33.92,0,65.82,13.21,89.8,37.2c23.99,23.99,37.2,55.88,37.2,89.8s-13.21,65.82-37.2,89.8
				c-23.99,23.99-55.88,37.2-89.8,37.2c-33.92,0-65.82-13.21-89.8-37.2c-23.99-23.99-37.2-55.88-37.2-89.8s13.21-65.82,37.2-89.8
				C1342.18,14.21,1374.08,1,1408,1 M1408,0c-70.69,0-128,57.31-128,128s57.31,128,128,128c70.69,0,128-57.31,128-128
				S1478.69,0,1408,0L1408,0z"/>
		</g>
		<g>
			<circle class="st1" cx="1408" cy="144" r="111.5"/>
			<g>
				<path class="st1" d="M1408,33c29.65,0,57.52,11.55,78.49,32.51C1507.45,86.48,1519,114.35,1519,144s-11.55,57.52-32.51,78.49
					C1465.52,243.45,1437.65,255,1408,255s-57.52-11.55-78.49-32.51C1308.55,201.52,1297,173.65,1297,144s11.55-57.52,32.51-78.49
					C1350.48,44.55,1378.35,33,1408,33 M1408,32c-61.86,0-112,50.14-112,112s50.14,112,112,112c61.86,0,112-50.14,112-112
					S1469.86,32,1408,32L1408,32z"/>
			</g>
		</g>
		<g>
			<circle class="st2" cx="1407.5" cy="163.5" r="92"/>
			<path class="st2" d="M1407.5,72c50.45,0,91.5,41.05,91.5,91.5s-41.05,91.5-91.5,91.5s-91.5-41.05-91.5-91.5S1357.05,72,1407.5,72
				 M1407.5,71c-51.09,0-92.5,41.41-92.5,92.5c0,51.09,41.41,92.5,92.5,92.5c51.09,0,92.5-41.41,92.5-92.5
				C1500,112.41,1458.59,71,1407.5,71L1407.5,71z"/>
		</g>
		<g>
			<circle class="st3" cx="1408" cy="186" r="69.5"/>
			<path class="st3" d="M1408,117c38.05,0,69,30.95,69,69s-30.95,69-69,69s-69-30.95-69-69S1369.95,117,1408,117 M1408,116
				c-38.66,0-70,31.34-70,70s31.34,70,70,70c38.66,0,70-31.34,70-70S1446.66,116,1408,116L1408,116z"/>
		</g>
		<g>
			<circle class="st4" cx="1408" cy="203" r="52.5"/>
			<path class="st4" d="M1408,151c28.67,0,52,23.33,52,52s-23.33,52-52,52s-52-23.33-52-52S1379.33,151,1408,151 M1408,150
				c-29.27,0-53,23.73-53,53c0,29.27,23.73,53,53,53c29.27,0,53-23.73,53-53C1461,173.73,1437.27,150,1408,150L1408,150z"/>
		</g>
	</g>
	<g>
		<g>
			<circle class="st0" cx="1664" cy="128" r="127.5"/>
			<path class="st0" d="M1664,1c33.92,0,65.82,13.21,89.8,37.2c23.99,23.99,37.2,55.88,37.2,89.8s-13.21,65.82-37.2,89.8
				c-23.99,23.99-55.88,37.2-89.8,37.2c-33.92,0-65.82-13.21-89.8-37.2c-23.99-23.99-37.2-55.88-37.2-89.8s13.21-65.82,37.2-89.8
				C1598.18,14.21,1630.08,1,1664,1 M1664,0c-70.69,0-128,57.31-128,128s57.31,128,128,128c70.69,0,128-57.31,128-128
				S1734.69,0,1664,0L1664,0z"/>
		</g>
		<g>
			<circle class="st1" cx="1664" cy="144" r="111.5"/>
			<g>
				<path class="st1" d="M1664,33c29.65,0,57.52,11.55,78.49,32.51C1763.45,86.48,1775,114.35,1775,144s-11.55,57.52-32.51,78.49
					C1721.52,243.45,1693.65,255,1664,255s-57.52-11.55-78.49-32.51C1564.55,201.52,1553,173.65,1553,144s11.55-57.52,32.51-78.49
					C1606.48,44.55,1634.35,33,1664,33 M1664,32c-61.86,0-112,50.14-112,112s50.14,112,112,112c61.86,0,112-50.14,112-112
					S1725.86,32,1664,32L1664,32z"/>
			</g>
		</g>
		<g>
			<circle class="st2" cx="1663.5" cy="163.5" r="92"/>
			<path class="st2" d="M1663.5,72c50.45,0,91.5,41.05,91.5,91.5s-41.05,91.5-91.5,91.5s-91.5-41.05-91.5-91.5S1613.05,72,1663.5,72
				 M1663.5,71c-51.09,0-92.5,41.41-92.5,92.5c0,51.09,41.41,92.5,92.5,92.5c51.09,0,92.5-41.41,92.5-92.5
				C1756,112.41,1714.59,71,1663.5,71L1663.5,71z"/>
		</g>
		<g>
			<circle class="st3" cx="1664" cy="186" r="69.5"/>
			<path class="st3" d="M1664,117c38.05,0,69,30.95,69,69s-30.95,69-69,69s-69-30.95-69-69S1625.95,117,1664,117 M1664,116
				c-38.66,0-70,31.34-70,70s31.34,70,70,70c38.66,0,70-31.34,70-70S1702.66,116,1664,116L1664,116z"/>
		</g>
		<g>
			<circle class="st4" cx="1664" cy="203" r="52.5"/>
			<path class="st4" d="M1664,151c28.67,0,52,23.33,52,52s-23.33,52-52,52s-52-23.33-52-52S1635.33,151,1664,151 M1664,150
				c-29.27,0-53,23.73-53,53c0,29.27,23.73,53,53,53c29.27,0,53-23.73,53-53C1717,173.73,1693.27,150,1664,150L1664,150z"/>
		</g>
	</g>
	<g>
		<g>
			<circle class="st0" cx="1920" cy="128" r="127.5"/>
			<path class="st0" d="M1920,1c33.92,0,65.82,13.21,89.8,37.2c23.99,23.99,37.2,55.88,37.2,89.8s-13.21,65.82-37.2,89.8
				c-23.99,23.99-55.88,37.2-89.8,37.2c-33.92,0-65.82-13.21-89.8-37.2c-23.99-23.99-37.2-55.88-37.2-89.8s13.21-65.82,37.2-89.8
				C1854.18,14.21,1886.08,1,1920,1 M1920,0c-70.69,0-128,57.31-128,128s57.31,128,128,128c70.69,0,128-57.31,128-128
				S1990.69,0,1920,0L1920,0z"/>
		</g>
		<g>
			<circle class="st1" cx="1920" cy="144" r="111.5"/>
			<g>
				<path class="st1" d="M1920,33c29.65,0,57.52,11.55,78.49,32.51C2019.45,86.48,2031,114.35,2031,144s-11.55,57.52-32.51,78.49
					C1977.52,243.45,1949.65,255,1920,255s-57.52-11.55-78.49-32.51C1820.55,201.52,1809,173.65,1809,144s11.55-57.52,32.51-78.49
					C1862.48,44.55,1890.35,33,1920,33 M1920,32c-61.86,0-112,50.14-112,112s50.14,112,112,112c61.86,0,112-50.14,112-112
					S1981.86,32,1920,32L1920,32z"/>
			</g>
		</g>
		<g>
			<circle class="st2" cx="1919.5" cy="163.5" r="92"/>
			<path class="st2" d="M1919.5,72c50.45,0,91.5,41.05,91.5,91.5s-41.05,91.5-91.5,91.5s-91.5-41.05-91.5-91.5S1869.05,72,1919.5,72
				 M1919.5,71c-51.09,0-92.5,41.41-92.5,92.5c0,51.09,41.41,92.5,92.5,92.5c51.09,0,92.5-41.41,92.5-92.5
				C2012,112.41,1970.59,71,1919.5,71L1919.5,71z"/>
		</g>
		<g>
			<circle class="st3" cx="1920" cy="186" r="69.5"/>
			<path class="st3" d="M1920,117c38.05,0,69,30.95,69,69s-30.95,69-69,69s-69-30.95-69-69S1881.95,117,1920,117 M1920,116
				c-38.66,0-70,31.34-70,70s31.34,70,70,70c38.66,0,70-31.34,70-70S1958.66,116,1920,116L1920,116z"/>
		</g>
		<g>
			<circle class="st4" cx="1920" cy="203" r="52.5"/>
			<path class="st4" d="M1920,151c28.67,0,52,23.33,52,52s-23.33,52-52,52s-52-23.33-52-52S1891.33,151,1920,151 M1920,150
				c-29.27,0-53,23.73-53,53c0,29.27,23.73,53,53,53c29.27,0,53-23.73,53-53C1973,173.73,1949.27,150,1920,150L1920,150z"/>
		</g>
	</g>
	<g>
		<g>
			<circle class="st0" cx="128" cy="384" r="127.5"/>
			<path class="st0" d="M128,257c33.92,0,65.82,13.21,89.8,37.2c23.99,23.99,37.2,55.88,37.2,89.8s-13.21,65.82-37.2,89.8
				C193.82,497.79,161.92,511,128,511s-65.82-13.21-89.8-37.2S1,417.92,1,384s13.21-65.82,37.2-89.8S94.08,257,128,257 M128,256
				C57.31,256,0,313.31,0,384s57.31,128,128,128s128-57.31,128-128S198.69,256,128,256L128,256z"/>
		</g>
		<g>
			<circle class="st1" cx="128" cy="400" r="111.5"/>
			<g>
				<path class="st1" d="M128,289c29.65,0,57.52,11.55,78.49,32.51C227.45,342.48,239,370.35,239,400s-11.55,57.52-32.51,78.49
					C185.52,499.45,157.65,511,128,511s-57.52-11.55-78.49-32.51S17,429.65,17,400s11.55-57.52,32.51-78.49S98.35,289,128,289
					 M128,288c-61.86,0-112,50.14-112,112s50.14,112,112,112s112-50.14,112-112S189.86,288,128,288L128,288z"/>
			</g>
		</g>
		<g>
			<circle class="st2" cx="127.5" cy="419.5" r="92"/>
			<path class="st2" d="M127.5,328c50.45,0,91.5,41.05,91.5,91.5S177.95,511,127.5,511S36,469.95,36,419.5S77.05,328,127.5,328
				 M127.5,327C76.41,327,35,368.41,35,419.5c0,51.09,41.41,92.5,92.5,92.5s92.5-41.41,92.5-92.5C220,368.41,178.59,327,127.5,327
				L127.5,327z"/>
		</g>
		<g>
			<circle class="st3" cx="128" cy="442" r="69.5"/>
			<path class="st3" d="M128,373c38.05,0,69,30.95,69,69s-30.95,69-69,69s-69-30.95-69-69S89.95,373,128,373 M128,372
				c-38.66,0-70,31.34-70,70s31.34,70,70,70s70-31.34,70-70S166.66,372,128,372L128,372z"/>
		</g>
		<g>
			<circle class="st4" cx="128" cy="459" r="52.5"/>
			<path class="st4" d="M128,407c28.67,0,52,23.33,52,52s-23.33,52-52,52s-52-23.33-52-52S99.33,407,128,407 M128,406
				c-29.27,0-53,23.73-53,53c0,29.27,23.73,53,53,53s53-23.73,53-53C181,429.73,157.27,406,128,406L128,406z"/>
		</g>
	</g>
	<g>
		<g>
			<circle class="st0" cx="384" cy="384" r="127.5"/>
			<path class="st0" d="M384,257c33.92,0,65.82,13.21,89.8,37.2S511,350.08,511,384s-13.21,65.82-37.2,89.8S417.92,511,384,511
				s-65.82-13.21-89.8-37.2C270.21,449.82,257,417.92,257,384s13.21-65.82,37.2-89.8C318.18,270.21,350.08,257,384,257 M384,256
				c-70.69,0-128,57.31-128,128s57.31,128,128,128s128-57.31,128-128S454.69,256,384,256L384,256z"/>
		</g>
		<g>
			<circle class="st1" cx="384" cy="400" r="111.5"/>
			<g>
				<path class="st1" d="M384,289c29.65,0,57.52,11.55,78.49,32.51S495,370.35,495,400s-11.55,57.52-32.51,78.49S413.65,511,384,511
					s-57.52-11.55-78.49-32.51C284.55,457.52,273,429.65,273,400s11.55-57.52,32.51-78.49C326.48,300.55,354.35,289,384,289
					 M384,288c-61.86,0-112,50.14-112,112s50.14,112,112,112s112-50.14,112-112S445.86,288,384,288L384,288z"/>
			</g>
		</g>
		<g>
			<circle class="st2" cx="383.5" cy="419.5" r="92"/>
			<path class="st2" d="M383.5,328c50.45,0,91.5,41.05,91.5,91.5S433.95,511,383.5,511S292,469.95,292,419.5S333.05,328,383.5,328
				 M383.5,327c-51.09,0-92.5,41.41-92.5,92.5c0,51.09,41.41,92.5,92.5,92.5s92.5-41.41,92.5-92.5C476,368.41,434.59,327,383.5,327
				L383.5,327z"/>
		</g>
		<g>
			<circle class="st3" cx="384" cy="442" r="69.5"/>
			<path class="st3" d="M384,373c38.05,0,69,30.95,69,69s-30.95,69-69,69s-69-30.95-69-69S345.95,373,384,373 M384,372
				c-38.66,0-70,31.34-70,70s31.34,70,70,70s70-31.34,70-70S422.66,372,384,372L384,372z"/>
		</g>
		<g>
			<circle class="st4" cx="384" cy="459" r="52.5"/>
			<path class="st4" d="M384,407c28.67,0,52,23.33,52,52s-23.33,52-52,52s-52-23.33-52-52S355.33,407,384,407 M384,406
				c-29.27,0-53,23.73-53,53c0,29.27,23.73,53,53,53c29.27,0,53-23.73,53-53C437,429.73,413.27,406,384,406L384,406z"/>
		</g>
	</g>
	<g>
		<g>
			<circle class="st0" cx="640" cy="384" r="127.5"/>
			<path class="st0" d="M640,257c33.92,0,65.82,13.21,89.8,37.2S767,350.08,767,384s-13.21,65.82-37.2,89.8S673.92,511,640,511
				s-65.82-13.21-89.8-37.2S513,417.92,513,384s13.21-65.82,37.2-89.8S606.08,257,640,257 M640,256c-70.69,0-128,57.31-128,128
				s57.31,128,128,128s128-57.31,128-128S710.69,256,640,256L640,256z"/>
		</g>
		<g>
			<circle class="st1" cx="640" cy="400" r="111.5"/>
			<g>
				<path class="st1" d="M640,289c29.65,0,57.52,11.55,78.49,32.51S751,370.35,751,400s-11.55,57.52-32.51,78.49S669.65,511,640,511
					s-57.52-11.55-78.49-32.51S529,429.65,529,400s11.55-57.52,32.51-78.49S610.35,289,640,289 M640,288c-61.86,0-112,50.14-112,112
					s50.14,112,112,112s112-50.14,112-112S701.86,288,640,288L640,288z"/>
			</g>
		</g>
		<g>
			<circle class="st2" cx="639.5" cy="419.5" r="92"/>
			<path class="st2" d="M639.5,328c50.45,0,91.5,41.05,91.5,91.5S689.95,511,639.5,511S548,469.95,548,419.5S589.05,328,639.5,328
				 M639.5,327c-51.09,0-92.5,41.41-92.5,92.5c0,51.09,41.41,92.5,92.5,92.5c51.09,0,92.5-41.41,92.5-92.5
				C732,368.41,690.59,327,639.5,327L639.5,327z"/>
		</g>
		<g>
			<circle class="st3" cx="640" cy="442" r="69.5"/>
			<path class="st3" d="M640,373c38.05,0,69,30.95,69,69s-30.95,69-69,69s-69-30.95-69-69S601.95,373,640,373 M640,372
				c-38.66,0-70,31.34-70,70s31.34,70,70,70s70-31.34,70-70S678.66,372,640,372L640,372z"/>
		</g>
		<g>
			<circle class="st4" cx="640" cy="459" r="52.5"/>
			<path class="st4" d="M640,407c28.67,0,52,23.33,52,52s-23.33,52-52,52s-52-23.33-52-52S611.33,407,640,407 M640,406
				c-29.27,0-53,23.73-53,53c0,29.27,23.73,53,53,53c29.27,0,53-23.73,53-53C693,429.73,669.27,406,640,406L640,406z"/>
		</g>
	</g>
	<g>
		<g>
			
				<ellipse transform="matrix(0.1602 -0.9871 0.9871 0.1602 373.4357 1206.9205)" class="st0" cx="896" cy="384" rx="127.5" ry="127.5"/>
			<path class="st0" d="M896,257c33.92,0,65.82,13.21,89.8,37.2c23.99,23.99,37.2,55.88,37.2,89.8s-13.21,65.82-37.2,89.8
				C961.82,497.79,929.92,511,896,511c-33.92,0-65.82-13.21-89.8-37.2C782.21,449.82,769,417.92,769,384s13.21-65.82,37.2-89.8
				C830.18,270.21,862.08,257,896,257 M896,256c-70.69,0-128,57.31-128,128s57.31,128,128,128c70.69,0,128-57.31,128-128
				S966.69,256,896,256L896,256z"/>
		</g>
		<g>
			
				<ellipse transform="matrix(0.1602 -0.9871 0.9871 0.1602 357.6423 1220.3577)" class="st1" cx="896" cy="400" rx="111.5" ry="111.5"/>
			<g>
				<path class="st1" d="M896,289c29.65,0,57.52,11.55,78.49,32.51C995.45,342.48,1007,370.35,1007,400s-11.55,57.52-32.51,78.49
					C953.52,499.45,925.65,511,896,511s-57.52-11.55-78.49-32.51S785,429.65,785,400s11.55-57.52,32.51-78.49S866.35,289,896,289
					 M896,288c-61.86,0-112,50.14-112,112s50.14,112,112,112c61.86,0,112-50.14,112-112S957.86,288,896,288L896,288z"/>
			</g>
		</g>
		<g>
			<circle class="st2" cx="895.5" cy="419.5" r="92"/>
			<path class="st2" d="M895.5,328c50.45,0,91.5,41.05,91.5,91.5S945.95,511,895.5,511c-50.45,0-91.5-41.05-91.5-91.5
				S845.05,328,895.5,328 M895.5,327c-51.09,0-92.5,41.41-92.5,92.5c0,51.09,41.41,92.5,92.5,92.5c51.09,0,92.5-41.41,92.5-92.5
				C988,368.41,946.59,327,895.5,327L895.5,327z"/>
		</g>
		<g>
			<circle class="st3" cx="896" cy="442" r="69.5"/>
			<path class="st3" d="M896,373c38.05,0,69,30.95,69,69s-30.95,69-69,69s-69-30.95-69-69S857.95,373,896,373 M896,372
				c-38.66,0-70,31.34-70,70s31.34,70,70,70c38.66,0,70-31.34,70-70S934.66,372,896,372L896,372z"/>
		</g>
		<g>
			<circle class="st4" cx="896" cy="459" r="52.5"/>
			<path class="st4" d="M896,407c28.67,0,52,23.33,52,52s-23.33,52-52,52c-28.67,0-52-23.33-52-52S867.33,407,896,407 M896,406
				c-29.27,0-53,23.73-53,53c0,29.27,23.73,53,53,53c29.27,0,53-23.73,53-53C949,429.73,925.27,406,896,406L896,406z"/>
		</g>
	</g>
	<g>
		<g>
			<circle class="st0" cx="1152" cy="384" r="127.5"/>
			<path class="st0" d="M1152,257c33.92,0,65.82,13.21,89.8,37.2c23.99,23.99,37.2,55.88,37.2,89.8s-13.21,65.82-37.2,89.8
				c-23.99,23.99-55.88,37.2-89.8,37.2c-33.92,0-65.82-13.21-89.8-37.2c-23.99-23.99-37.2-55.88-37.2-89.8s13.21-65.82,37.2-89.8
				C1086.18,270.21,1118.08,257,1152,257 M1152,256c-70.69,0-128,57.31-128,128s57.31,128,128,128c70.69,0,128-57.31,128-128
				S1222.69,256,1152,256L1152,256z"/>
		</g>
		<g>
			<circle class="st1" cx="1152" cy="400" r="111.5"/>
			<g>
				<path class="st1" d="M1152,289c29.65,0,57.52,11.55,78.49,32.51c20.97,20.97,32.51,48.84,32.51,78.49s-11.55,57.52-32.51,78.49
					C1209.52,499.45,1181.65,511,1152,511s-57.52-11.55-78.49-32.51C1052.55,457.52,1041,429.65,1041,400s11.55-57.52,32.51-78.49
					C1094.48,300.55,1122.35,289,1152,289 M1152,288c-61.86,0-112,50.14-112,112s50.14,112,112,112c61.86,0,112-50.14,112-112
					S1213.86,288,1152,288L1152,288z"/>
			</g>
		</g>
		<g>
			<circle class="st2" cx="1151.5" cy="419.5" r="92"/>
			<path class="st2" d="M1151.5,328c50.45,0,91.5,41.05,91.5,91.5s-41.05,91.5-91.5,91.5s-91.5-41.05-91.5-91.5
				S1101.05,328,1151.5,328 M1151.5,327c-51.09,0-92.5,41.41-92.5,92.5c0,51.09,41.41,92.5,92.5,92.5c51.09,0,92.5-41.41,92.5-92.5
				C1244,368.41,1202.59,327,1151.5,327L1151.5,327z"/>
		</g>
		<g>
			<circle class="st3" cx="1152" cy="442" r="69.5"/>
			<path class="st3" d="M1152,373c38.05,0,69,30.95,69,69s-30.95,69-69,69s-69-30.95-69-69S1113.95,373,1152,373 M1152,372
				c-38.66,0-70,31.34-70,70s31.34,70,70,70c38.66,0,70-31.34,70-70S1190.66,372,1152,372L1152,372z"/>
		</g>
		<g>
			<circle class="st4" cx="1152" cy="459" r="52.5"/>
			<path class="st4" d="M1152,407c28.67,0,52,23.33,52,52s-23.33,52-52,52s-52-23.33-52-52S1123.33,407,1152,407 M1152,406
				c-29.27,0-53,23.73-53,53c0,29.27,23.73,53,53,53c29.27,0,53-23.73,53-53C1205,429.73,1181.27,406,1152,406L1152,406z"/>
		</g>
	</g>
	<g>
		<g>
			<circle class="st0" cx="1408" cy="384" r="127.5"/>
			<path class="st0" d="M1408,257c33.92,0,65.82,13.21,89.8,37.2c23.99,23.99,37.2,55.88,37.2,89.8s-13.21,65.82-37.2,89.8
				c-23.99,23.99-55.88,37.2-89.8,37.2c-33.92,0-65.82-13.21-89.8-37.2c-23.99-23.99-37.2-55.88-37.2-89.8s13.21-65.82,37.2-89.8
				C1342.18,270.21,1374.08,257,1408,257 M1408,256c-70.69,0-128,57.31-128,128s57.31,128,128,128c70.69,0,128-57.31,128-128
				S1478.69,256,1408,256L1408,256z"/>
		</g>
		<g>
			<circle class="st1" cx="1408" cy="400" r="111.5"/>
			<g>
				<path class="st1" d="M1408,289c29.65,0,57.52,11.55,78.49,32.51c20.97,20.97,32.51,48.84,32.51,78.49s-11.55,57.52-32.51,78.49
					C1465.52,499.45,1437.65,511,1408,511s-57.52-11.55-78.49-32.51C1308.55,457.52,1297,429.65,1297,400s11.55-57.52,32.51-78.49
					C1350.48,300.55,1378.35,289,1408,289 M1408,288c-61.86,0-112,50.14-112,112s50.14,112,112,112c61.86,0,112-50.14,112-112
					S1469.86,288,1408,288L1408,288z"/>
			</g>
		</g>
		<g>
			<circle class="st2" cx="1407.5" cy="419.5" r="92"/>
			<path class="st2" d="M1407.5,328c50.45,0,91.5,41.05,91.5,91.5s-41.05,91.5-91.5,91.5s-91.5-41.05-91.5-91.5
				S1357.05,328,1407.5,328 M1407.5,327c-51.09,0-92.5,41.41-92.5,92.5c0,51.09,41.41,92.5,92.5,92.5c51.09,0,92.5-41.41,92.5-92.5
				C1500,368.41,1458.59,327,1407.5,327L1407.5,327z"/>
		</g>
		<g>
			<circle class="st3" cx="1408" cy="442" r="69.5"/>
			<path class="st3" d="M1408,373c38.05,0,69,30.95,69,69s-30.95,69-69,69s-69-30.95-69-69S1369.95,373,1408,373 M1408,372
				c-38.66,0-70,31.34-70,70s31.34,70,70,70c38.66,0,70-31.34,70-70S1446.66,372,1408,372L1408,372z"/>
		</g>
		<g>
			<circle class="st4" cx="1408" cy="459" r="52.5"/>
			<path class="st4" d="M1408,407c28.67,0,52,23.33,52,52s-23.33,52-52,52s-52-23.33-52-52S1379.33,407,1408,407 M1408,406
				c-29.27,0-53,23.73-53,53c0,29.27,23.73,53,53,53c29.27,0,53-23.73,53-53C1461,429.73,1437.27,406,1408,406L1408,406z"/>
		</g>
	</g>
	<g>
		<g>
			<circle class="st0" cx="1664" cy="384" r="127.5"/>
			<path class="st0" d="M1664,257c33.92,0,65.82,13.21,89.8,37.2c23.99,23.99,37.2,55.88,37.2,89.8s-13.21,65.82-37.2,89.8
				c-23.99,23.99-55.88,37.2-89.8,37.2c-33.92,0-65.82-13.21-89.8-37.2c-23.99-23.99-37.2-55.88-37.2-89.8s13.21-65.82,37.2-89.8
				C1598.18,270.21,1630.08,257,1664,257 M1664,256c-70.69,0-128,57.31-128,128s57.31,128,128,128c70.69,0,128-57.31,128-128
				S1734.69,256,1664,256L1664,256z"/>
		</g>
		<g>
			<circle class="st1" cx="1664" cy="400" r="111.5"/>
			<g>
				<path class="st1" d="M1664,289c29.65,0,57.52,11.55,78.49,32.51c20.97,20.97,32.51,48.84,32.51,78.49s-11.55,57.52-32.51,78.49
					C1721.52,499.45,1693.65,511,1664,511s-57.52-11.55-78.49-32.51C1564.55,457.52,1553,429.65,1553,400s11.55-57.52,32.51-78.49
					C1606.48,300.55,1634.35,289,1664,289 M1664,288c-61.86,0-112,50.14-112,112s50.14,112,112,112c61.86,0,112-50.14,112-112
					S1725.86,288,1664,288L1664,288z"/>
			</g>
		</g>
		<g>
			<circle class="st2" cx="1663.5" cy="419.5" r="92"/>
			<path class="st2" d="M1663.5,328c50.45,0,91.5,41.05,91.5,91.5s-41.05,91.5-91.5,91.5s-91.5-41.05-91.5-91.5
				S1613.05,328,1663.5,328 M1663.5,327c-51.09,0-92.5,41.41-92.5,92.5c0,51.09,41.41,92.5,92.5,92.5c51.09,0,92.5-41.41,92.5-92.5
				C1756,368.41,1714.59,327,1663.5,327L1663.5,327z"/>
		</g>
		<g>
			<circle class="st3" cx="1664" cy="442" r="69.5"/>
			<path class="st3" d="M1664,373c38.05,0,69,30.95,69,69s-30.95,69-69,69s-69-30.95-69-69S1625.95,373,1664,373 M1664,372
				c-38.66,0-70,31.34-70,70s31.34,70,70,70c38.66,0,70-31.34,70-70S1702.66,372,1664,372L1664,372z"/>
		</g>
		<g>
			<circle class="st4" cx="1664" cy="459" r="52.5"/>
			<path class="st4" d="M1664,407c28.67,0,52,23.33,52,52s-23.33,52-52,52s-52-23.33-52-52S1635.33,407,1664,407 M1664,406
				c-29.27,0-53,23.73-53,53c0,29.27,23.73,53,53,53c29.27,0,53-23.73,53-53C1717,429.73,1693.27,406,1664,406L1664,406z"/>
		</g>
	</g>
	<g>
		<g>
			<circle class="st0" cx="1920" cy="384" r="127.5"/>
			<path class="st0" d="M1920,257c33.92,0,65.82,13.21,89.8,37.2c23.99,23.99,37.2,55.88,37.2,89.8s-13.21,65.82-37.2,89.8
				c-23.99,23.99-55.88,37.2-89.8,37.2c-33.92,0-65.82-13.21-89.8-37.2c-23.99-23.99-37.2-55.88-37.2-89.8s13.21-65.82,37.2-89.8
				C1854.18,270.21,1886.08,257,1920,257 M1920,256c-70.69,0-128,57.31-128,128s57.31,128,128,128c70.69,0,128-57.31,128-128
				S1990.69,256,1920,256L1920,256z"/>
		</g>
		<g>
			<circle class="st1" cx="1920" cy="400" r="111.5"/>
			<g>
				<path class="st1" d="M1920,289c29.65,0,57.52,11.55,78.49,32.51c20.97,20.97,32.51,48.84,32.51,78.49s-11.55,57.52-32.51,78.49
					C1977.52,499.45,1949.65,511,1920,511s-57.52-11.55-78.49-32.51S1809,429.65,1809,400s11.55-57.52,32.51-78.49
					S1890.35,289,1920,289 M1920,288c-61.86,0-112,50.14-112,112s50.14,112,112,112c61.86,0,112-50.14,112-112S1981.86,288,1920,288
					L1920,288z"/>
			</g>
		</g>
		<g>
			<circle class="st2" cx="1919.5" cy="419.5" r="92"/>
			<path class="st2" d="M1919.5,328c50.45,0,91.5,41.05,91.5,91.5s-41.05,91.5-91.5,91.5c-50.45,0-91.5-41.05-91.5-91.5
				S1869.05,328,1919.5,328 M1919.5,327c-51.09,0-92.5,41.41-92.5,92.5c0,51.09,41.41,92.5,92.5,92.5c51.09,0,92.5-41.41,92.5-92.5
				C2012,368.41,1970.59,327,1919.5,327L1919.5,327z"/>
		</g>
		<g>
			<circle class="st3" cx="1920" cy="442" r="69.5"/>
			<path class="st3" d="M1920,373c38.05,0,69,30.95,69,69s-30.95,69-69,69s-69-30.95-69-69S1881.95,373,1920,373 M1920,372
				c-38.66,0-70,31.34-70,70s31.34,70,70,70s70-31.34,70-70S1958.66,372,1920,372L1920,372z"/>
		</g>
		<g>
			<circle class="st4" cx="1920" cy="459" r="52.5"/>
			<path class="st4" d="M1920,407c28.67,0,52,23.33,52,52s-23.33,52-52,52s-52-23.33-52-52S1891.33,407,1920,407 M1920,406
				c-29.27,0-53,23.73-53,53c0,29.27,23.73,53,53,53c29.27,0,53-23.73,53-53C1973,429.73,1949.27,406,1920,406L1920,406z"/>
		</g>
	</g>
	<g>
		<g>
			<circle class="st0" cx="128" cy="640" r="127.5"/>
			<path class="st0" d="M128,513c33.92,0,65.82,13.21,89.8,37.2c23.99,23.99,37.2,55.88,37.2,89.8s-13.21,65.82-37.2,89.8
				C193.82,753.79,161.92,767,128,767s-65.82-13.21-89.8-37.2S1,673.92,1,640s13.21-65.82,37.2-89.8S94.08,513,128,513 M128,512
				C57.31,512,0,569.31,0,640s57.31,128,128,128s128-57.31,128-128S198.69,512,128,512L128,512z"/>
		</g>
		<g>
			<circle class="st1" cx="128" cy="656" r="111.5"/>
			<g>
				<path class="st1" d="M128,545c29.65,0,57.52,11.55,78.49,32.51C227.45,598.48,239,626.35,239,656s-11.55,57.52-32.51,78.49
					C185.52,755.45,157.65,767,128,767s-57.52-11.55-78.49-32.51S17,685.65,17,656s11.55-57.52,32.51-78.49S98.35,545,128,545
					 M128,544c-61.86,0-112,50.14-112,112s50.14,112,112,112s112-50.14,112-112S189.86,544,128,544L128,544z"/>
			</g>
		</g>
		<g>
			<circle class="st2" cx="127.5" cy="675.5" r="92"/>
			<path class="st2" d="M127.5,584c50.45,0,91.5,41.05,91.5,91.5S177.95,767,127.5,767S36,725.95,36,675.5S77.05,584,127.5,584
				 M127.5,583C76.41,583,35,624.41,35,675.5c0,51.09,41.41,92.5,92.5,92.5s92.5-41.41,92.5-92.5C220,624.41,178.59,583,127.5,583
				L127.5,583z"/>
		</g>
		<g>
			<circle class="st3" cx="128" cy="698" r="69.5"/>
			<path class="st3" d="M128,629c38.05,0,69,30.95,69,69s-30.95,69-69,69s-69-30.95-69-69S89.95,629,128,629 M128,628
				c-38.66,0-70,31.34-70,70s31.34,70,70,70s70-31.34,70-70S166.66,628,128,628L128,628z"/>
		</g>
		<g>
			<circle class="st4" cx="128" cy="715" r="52.5"/>
			<path class="st4" d="M128,663c28.67,0,52,23.33,52,52s-23.33,52-52,52s-52-23.33-52-52S99.33,663,128,663 M128,662
				c-29.27,0-53,23.73-53,53c0,29.27,23.73,53,53,53s53-23.73,53-53C181,685.73,157.27,662,128,662L128,662z"/>
		</g>
	</g>
	<g>
		<g>
			<circle class="st0" cx="384" cy="640" r="127.5"/>
			<path class="st0" d="M384,513c33.92,0,65.82,13.21,89.8,37.2S511,606.08,511,640s-13.21,65.82-37.2,89.8S417.92,767,384,767
				s-65.82-13.21-89.8-37.2C270.21,705.82,257,673.92,257,640s13.21-65.82,37.2-89.8C318.18,526.21,350.08,513,384,513 M384,512
				c-70.69,0-128,57.31-128,128s57.31,128,128,128s128-57.31,128-128S454.69,512,384,512L384,512z"/>
		</g>
		<g>
			<circle class="st1" cx="384" cy="656" r="111.5"/>
			<g>
				<path class="st1" d="M384,545c29.65,0,57.52,11.55,78.49,32.51S495,626.35,495,656s-11.55,57.52-32.51,78.49S413.65,767,384,767
					s-57.52-11.55-78.49-32.51C284.55,713.52,273,685.65,273,656s11.55-57.52,32.51-78.49C326.48,556.55,354.35,545,384,545
					 M384,544c-61.86,0-112,50.14-112,112s50.14,112,112,112s112-50.14,112-112S445.86,544,384,544L384,544z"/>
			</g>
		</g>
		<g>
			<circle class="st2" cx="383.5" cy="675.5" r="92"/>
			<path class="st2" d="M383.5,584c50.45,0,91.5,41.05,91.5,91.5S433.95,767,383.5,767S292,725.95,292,675.5S333.05,584,383.5,584
				 M383.5,583c-51.09,0-92.5,41.41-92.5,92.5c0,51.09,41.41,92.5,92.5,92.5s92.5-41.41,92.5-92.5C476,624.41,434.59,583,383.5,583
				L383.5,583z"/>
		</g>
		<g>
			<circle class="st3" cx="384" cy="698" r="69.5"/>
			<path class="st3" d="M384,629c38.05,0,69,30.95,69,69s-30.95,69-69,69s-69-30.95-69-69S345.95,629,384,629 M384,628
				c-38.66,0-70,31.34-70,70s31.34,70,70,70s70-31.34,70-70S422.66,628,384,628L384,628z"/>
		</g>
		<g>
			<circle class="st4" cx="384" cy="715" r="52.5"/>
			<path class="st4" d="M384,663c28.67,0,52,23.33,52,52s-23.33,52-52,52s-52-23.33-52-52S355.33,663,384,663 M384,662
				c-29.27,0-53,23.73-53,53c0,29.27,23.73,53,53,53c29.27,0,53-23.73,53-53C437,685.73,413.27,662,384,662L384,662z"/>
		</g>
	</g>
	<g>
		<g>
			<circle class="st0" cx="640" cy="640" r="127.5"/>
			<path class="st0" d="M640,513c33.92,0,65.82,13.21,89.8,37.2S767,606.08,767,640s-13.21,65.82-37.2,89.8S673.92,767,640,767
				s-65.82-13.21-89.8-37.2S513,673.92,513,640s13.21-65.82,37.2-89.8S606.08,513,640,513 M640,512c-70.69,0-128,57.31-128,128
				s57.31,128,128,128s128-57.31,128-128S710.69,512,640,512L640,512z"/>
		</g>
		<g>
			<circle class="st1" cx="640" cy="656" r="111.5"/>
			<g>
				<path class="st1" d="M640,545c29.65,0,57.52,11.55,78.49,32.51S751,626.35,751,656s-11.55,57.52-32.51,78.49S669.65,767,640,767
					s-57.52-11.55-78.49-32.51S529,685.65,529,656s11.55-57.52,32.51-78.49S610.35,545,640,545 M640,544c-61.86,0-112,50.14-112,112
					s50.14,112,112,112s112-50.14,112-112S701.86,544,640,544L640,544z"/>
			</g>
		</g>
		<g>
			<circle class="st2" cx="639.5" cy="675.5" r="92"/>
			<path class="st2" d="M639.5,584c50.45,0,91.5,41.05,91.5,91.5S689.95,767,639.5,767S548,725.95,548,675.5S589.05,584,639.5,584
				 M639.5,583c-51.09,0-92.5,41.41-92.5,92.5c0,51.09,41.41,92.5,92.5,92.5c51.09,0,92.5-41.41,92.5-92.5
				C732,624.41,690.59,583,639.5,583L639.5,583z"/>
		</g>
		<g>
			<circle class="st3" cx="640" cy="698" r="69.5"/>
			<path class="st3" d="M640,629c38.05,0,69,30.95,69,69s-30.95,69-69,69s-69-30.95-69-69S601.95,629,640,629 M640,628
				c-38.66,0-70,31.34-70,70s31.34,70,70,70s70-31.34,70-70S678.66,628,640,628L640,628z"/>
		</g>
		<g>
			<circle class="st4" cx="640" cy="715" r="52.5"/>
			<path class="st4" d="M640,663c28.67,0,52,23.33,52,52s-23.33,52-52,52s-52-23.33-52-52S611.33,663,640,663 M640,662
				c-29.27,0-53,23.73-53,53c0,29.27,23.73,53,53,53c29.27,0,53-23.73,53-53C693,685.73,669.27,662,640,662L640,662z"/>
		</g>
	</g>
	<g>
		<g>
			
				<ellipse transform="matrix(0.1602 -0.9871 0.9871 0.1602 120.7413 1421.9139)" class="st0" cx="896" cy="640" rx="127.5" ry="127.5"/>
			<path class="st0" d="M896,513c33.92,0,65.82,13.21,89.8,37.2c23.99,23.99,37.2,55.88,37.2,89.8s-13.21,65.82-37.2,89.8
				C961.82,753.79,929.92,767,896,767c-33.92,0-65.82-13.21-89.8-37.2C782.21,705.82,769,673.92,769,640s13.21-65.82,37.2-89.8
				C830.18,526.21,862.08,513,896,513 M896,512c-70.69,0-128,57.31-128,128s57.31,128,128,128c70.69,0,128-57.31,128-128
				S966.69,512,896,512L896,512z"/>
		</g>
		<g>
			
				<ellipse transform="matrix(0.1602 -0.9871 0.9871 0.1602 104.9479 1435.3511)" class="st1" cx="896" cy="656" rx="111.5" ry="111.5"/>
			<g>
				<path class="st1" d="M896,545c29.65,0,57.52,11.55,78.49,32.51C995.45,598.48,1007,626.35,1007,656s-11.55,57.52-32.51,78.49
					C953.52,755.45,925.65,767,896,767s-57.52-11.55-78.49-32.51S785,685.65,785,656s11.55-57.52,32.51-78.49S866.35,545,896,545
					 M896,544c-61.86,0-112,50.14-112,112s50.14,112,112,112c61.86,0,112-50.14,112-112S957.86,544,896,544L896,544z"/>
			</g>
		</g>
		<g>
			<circle class="st2" cx="895.5" cy="675.5" r="92"/>
			<path class="st2" d="M895.5,584c50.45,0,91.5,41.05,91.5,91.5S945.95,767,895.5,767c-50.45,0-91.5-41.05-91.5-91.5
				S845.05,584,895.5,584 M895.5,583c-51.09,0-92.5,41.41-92.5,92.5c0,51.09,41.41,92.5,92.5,92.5c51.09,0,92.5-41.41,92.5-92.5
				C988,624.41,946.59,583,895.5,583L895.5,583z"/>
		</g>
		<g>
			<circle class="st3" cx="896" cy="698" r="69.5"/>
			<path class="st3" d="M896,629c38.05,0,69,30.95,69,69s-30.95,69-69,69s-69-30.95-69-69S857.95,629,896,629 M896,628
				c-38.66,0-70,31.34-70,70s31.34,70,70,70c38.66,0,70-31.34,70-70S934.66,628,896,628L896,628z"/>
		</g>
		<g>
			<circle class="st4" cx="896" cy="715" r="52.5"/>
			<path class="st4" d="M896,663c28.67,0,52,23.33,52,52s-23.33,52-52,52c-28.67,0-52-23.33-52-52S867.33,663,896,663 M896,662
				c-29.27,0-53,23.73-53,53c0,29.27,23.73,53,53,53c29.27,0,53-23.73,53-53C949,685.73,925.27,662,896,662L896,662z"/>
		</g>
	</g>
	<g>
		<g>
			<circle class="st0" cx="1152" cy="640" r="127.5"/>
			<path class="st0" d="M1152,513c33.92,0,65.82,13.21,89.8,37.2c23.99,23.99,37.2,55.88,37.2,89.8s-13.21,65.82-37.2,89.8
				c-23.99,23.99-55.88,37.2-89.8,37.2c-33.92,0-65.82-13.21-89.8-37.2c-23.99-23.99-37.2-55.88-37.2-89.8s13.21-65.82,37.2-89.8
				C1086.18,526.21,1118.08,513,1152,513 M1152,512c-70.69,0-128,57.31-128,128s57.31,128,128,128c70.69,0,128-57.31,128-128
				S1222.69,512,1152,512L1152,512z"/>
		</g>
		<g>
			<circle class="st1" cx="1152" cy="656" r="111.5"/>
			<g>
				<path class="st1" d="M1152,545c29.65,0,57.52,11.55,78.49,32.51c20.97,20.97,32.51,48.84,32.51,78.49s-11.55,57.52-32.51,78.49
					C1209.52,755.45,1181.65,767,1152,767s-57.52-11.55-78.49-32.51C1052.55,713.52,1041,685.65,1041,656s11.55-57.52,32.51-78.49
					C1094.48,556.55,1122.35,545,1152,545 M1152,544c-61.86,0-112,50.14-112,112s50.14,112,112,112c61.86,0,112-50.14,112-112
					S1213.86,544,1152,544L1152,544z"/>
			</g>
		</g>
		<g>
			<circle class="st2" cx="1151.5" cy="675.5" r="92"/>
			<path class="st2" d="M1151.5,584c50.45,0,91.5,41.05,91.5,91.5s-41.05,91.5-91.5,91.5s-91.5-41.05-91.5-91.5
				S1101.05,584,1151.5,584 M1151.5,583c-51.09,0-92.5,41.41-92.5,92.5c0,51.09,41.41,92.5,92.5,92.5c51.09,0,92.5-41.41,92.5-92.5
				C1244,624.41,1202.59,583,1151.5,583L1151.5,583z"/>
		</g>
		<g>
			<circle class="st3" cx="1152" cy="698" r="69.5"/>
			<path class="st3" d="M1152,629c38.05,0,69,30.95,69,69s-30.95,69-69,69s-69-30.95-69-69S1113.95,629,1152,629 M1152,628
				c-38.66,0-70,31.34-70,70s31.34,70,70,70c38.66,0,70-31.34,70-70S1190.66,628,1152,628L1152,628z"/>
		</g>
		<g>
			<circle class="st4" cx="1152" cy="715" r="52.5"/>
			<path class="st4" d="M1152,663c28.67,0,52,23.33,52,52s-23.33,52-52,52s-52-23.33-52-52S1123.33,663,1152,663 M1152,662
				c-29.27,0-53,23.73-53,53c0,29.27,23.73,53,53,53c29.27,0,53-23.73,53-53C1205,685.73,1181.27,662,1152,662L1152,662z"/>
		</g>
	</g>
	<g>
		<g>
			<circle class="st0" cx="1408" cy="640" r="127.5"/>
			<path class="st0" d="M1408,513c33.92,0,65.82,13.21,89.8,37.2c23.99,23.99,37.2,55.88,37.2,89.8s-13.21,65.82-37.2,89.8
				c-23.99,23.99-55.88,37.2-89.8,37.2c-33.92,0-65.82-13.21-89.8-37.2c-23.99-23.99-37.2-55.88-37.2-89.8s13.21-65.82,37.2-89.8
				C1342.18,526.21,1374.08,513,1408,513 M1408,512c-70.69,0-128,57.31-128,128s57.31,128,128,128c70.69,0,128-57.31,128-128
				S1478.69,512,1408,512L1408,512z"/>
		</g>
		<g>
			<circle class="st1" cx="1408" cy="656" r="111.5"/>
			<g>
				<path class="st1" d="M1408,545c29.65,0,57.52,11.55,78.49,32.51c20.97,20.97,32.51,48.84,32.51,78.49s-11.55,57.52-32.51,78.49
					C1465.52,755.45,1437.65,767,1408,767s-57.52-11.55-78.49-32.51C1308.55,713.52,1297,685.65,1297,656s11.55-57.52,32.51-78.49
					C1350.48,556.55,1378.35,545,1408,545 M1408,544c-61.86,0-112,50.14-112,112s50.14,112,112,112c61.86,0,112-50.14,112-112
					S1469.86,544,1408,544L1408,544z"/>
			</g>
		</g>
		<g>
			<circle class="st2" cx="1407.5" cy="675.5" r="92"/>
			<path class="st2" d="M1407.5,584c50.45,0,91.5,41.05,91.5,91.5s-41.05,91.5-91.5,91.5s-91.5-41.05-91.5-91.5
				S1357.05,584,1407.5,584 M1407.5,583c-51.09,0-92.5,41.41-92.5,92.5c0,51.09,41.41,92.5,92.5,92.5c51.09,0,92.5-41.41,92.5-92.5
				C1500,624.41,1458.59,583,1407.5,583L1407.5,583z"/>
		</g>
		<g>
			<circle class="st3" cx="1408" cy="698" r="69.5"/>
			<path class="st3" d="M1408,629c38.05,0,69,30.95,69,69s-30.95,69-69,69s-69-30.95-69-69S1369.95,629,1408,629 M1408,628
				c-38.66,0-70,31.34-70,70s31.34,70,70,70c38.66,0,70-31.34,70-70S1446.66,628,1408,628L1408,628z"/>
		</g>
		<g>
			<circle class="st4" cx="1408" cy="715" r="52.5"/>
			<path class="st4" d="M1408,663c28.67,0,52,23.33,52,52s-23.33,52-52,52s-52-23.33-52-52S1379.33,663,1408,663 M1408,662
				c-29.27,0-53,23.73-53,53c0,29.27,23.73,53,53,53c29.27,0,53-23.73,53-53C1461,685.73,1437.27,662,1408,662L1408,662z"/>
		</g>
	</g>
	<g>
		<g>
			<circle class="st0" cx="1664" cy="640" r="127.5"/>
			<path class="st0" d="M1664,513c33.92,0,65.82,13.21,89.8,37.2c23.99,23.99,37.2,55.88,37.2,89.8s-13.21,65.82-37.2,89.8
				c-23.99,23.99-55.88,37.2-89.8,37.2c-33.92,0-65.82-13.21-89.8-37.2c-23.99-23.99-37.2-55.88-37.2-89.8s13.21-65.82,37.2-89.8
				C1598.18,526.21,1630.08,513,1664,513 M1664,512c-70.69,0-128,57.31-128,128s57.31,128,128,128c70.69,0,128-57.31,128-128
				S1734.69,512,1664,512L1664,512z"/>
		</g>
		<g>
			<circle class="st1" cx="1664" cy="656" r="111.5"/>
			<g>
				<path class="st1" d="M1664,545c29.65,0,57.52,11.55,78.49,32.51c20.97,20.97,32.51,48.84,32.51,78.49s-11.55,57.52-32.51,78.49
					C1721.52,755.45,1693.65,767,1664,767s-57.52-11.55-78.49-32.51C1564.55,713.52,1553,685.65,1553,656s11.55-57.52,32.51-78.49
					C1606.48,556.55,1634.35,545,1664,545 M1664,544c-61.86,0-112,50.14-112,112s50.14,112,112,112c61.86,0,112-50.14,112-112
					S1725.86,544,1664,544L1664,544z"/>
			</g>
		</g>
		<g>
			<circle class="st2" cx="1663.5" cy="675.5" r="92"/>
			<path class="st2" d="M1663.5,584c50.45,0,91.5,41.05,91.5,91.5s-41.05,91.5-91.5,91.5s-91.5-41.05-91.5-91.5
				S1613.05,584,1663.5,584 M1663.5,583c-51.09,0-92.5,41.41-92.5,92.5c0,51.09,41.41,92.5,92.5,92.5c51.09,0,92.5-41.41,92.5-92.5
				C1756,624.41,1714.59,583,1663.5,583L1663.5,583z"/>
		</g>
		<g>
			<circle class="st3" cx="1664" cy="698" r="69.5"/>
			<path class="st3" d="M1664,629c38.05,0,69,30.95,69,69s-30.95,69-69,69s-69-30.95-69-69S1625.95,629,1664,629 M1664,628
				c-38.66,0-70,31.34-70,70s31.34,70,70,70c38.66,0,70-31.34,70-70S1702.66,628,1664,628L1664,628z"/>
		</g>
		<g>
			<circle class="st4" cx="1664" cy="715" r="52.5"/>
			<path class="st4" d="M1664,663c28.67,0,52,23.33,52,52s-23.33,52-52,52s-52-23.33-52-52S1635.33,663,1664,663 M1664,662
				c-29.27,0-53,23.73-53,53c0,29.27,23.73,53,53,53c29.27,0,53-23.73,53-53C1717,685.73,1693.27,662,1664,662L1664,662z"/>
		</g>
	</g>
	<g>
		<g>
			<circle class="st0" cx="1920" cy="640" r="127.5"/>
			<path class="st0" d="M1920,513c33.92,0,65.82,13.21,89.8,37.2c23.99,23.99,37.2,55.88,37.2,89.8s-13.21,65.82-37.2,89.8
				c-23.99,23.99-55.88,37.2-89.8,37.2c-33.92,0-65.82-13.21-89.8-37.2c-23.99-23.99-37.2-55.88-37.2-89.8s13.21-65.82,37.2-89.8
				C1854.18,526.21,1886.08,513,1920,513 M1920,512c-70.69,0-128,57.31-128,128s57.31,128,128,128c70.69,0,128-57.31,128-128
				S1990.69,512,1920,512L1920,512z"/>
		</g>
		<g>
			<circle class="st1" cx="1920" cy="656" r="111.5"/>
			<g>
				<path class="st1" d="M1920,545c29.65,0,57.52,11.55,78.49,32.51c20.97,20.97,32.51,48.84,32.51,78.49s-11.55,57.52-32.51,78.49
					C1977.52,755.45,1949.65,767,1920,767s-57.52-11.55-78.49-32.51S1809,685.65,1809,656s11.55-57.52,32.51-78.49
					S1890.35,545,1920,545 M1920,544c-61.86,0-112,50.14-112,112s50.14,112,112,112c61.86,0,112-50.14,112-112S1981.86,544,1920,544
					L1920,544z"/>
			</g>
		</g>
		<g>
			<circle class="st2" cx="1919.5" cy="675.5" r="92"/>
			<path class="st2" d="M1919.5,584c50.45,0,91.5,41.05,91.5,91.5s-41.05,91.5-91.5,91.5c-50.45,0-91.5-41.05-91.5-91.5
				S1869.05,584,1919.5,584 M1919.5,583c-51.09,0-92.5,41.41-92.5,92.5c0,51.09,41.41,92.5,92.5,92.5c51.09,0,92.5-41.41,92.5-92.5
				C2012,624.41,1970.59,583,1919.5,583L1919.5,583z"/>
		</g>
		<g>
			<circle class="st3" cx="1920" cy="698" r="69.5"/>
			<path class="st3" d="M1920,629c38.05,0,69,30.95,69,69s-30.95,69-69,69s-69-30.95-69-69S1881.95,629,1920,629 M1920,628
				c-38.66,0-70,31.34-70,70s31.34,70,70,70s70-31.34,70-70S1958.66,628,1920,628L1920,628z"/>
		</g>
		<g>
			<circle class="st4" cx="1920" cy="715" r="52.5"/>
			<path class="st4" d="M1920,663c28.67,0,52,23.33,52,52s-23.33,52-52,52s-52-23.33-52-52S1891.33,663,1920,663 M1920,662
				c-29.27,0-53,23.73-53,53c0,29.27,23.73,53,53,53c29.27,0,53-23.73,53-53C1973,685.73,1949.27,662,1920,662L1920,662z"/>
		</g>
	</g>
	<g>
		<g>
			<circle class="st0" cx="128" cy="896" r="127.5"/>
			<path class="st0" d="M128,769c33.92,0,65.82,13.21,89.8,37.2c23.99,23.99,37.2,55.88,37.2,89.8s-13.21,65.82-37.2,89.8
				c-23.99,23.99-55.88,37.2-89.8,37.2s-65.82-13.21-89.8-37.2S1,929.92,1,896s13.21-65.82,37.2-89.8S94.08,769,128,769 M128,768
				C57.31,768,0,825.31,0,896s57.31,128,128,128s128-57.31,128-128S198.69,768,128,768L128,768z"/>
		</g>
		<g>
			<circle class="st1" cx="128" cy="912" r="111.5"/>
			<g>
				<path class="st1" d="M128,801c29.65,0,57.52,11.55,78.49,32.51C227.45,854.48,239,882.35,239,912s-11.55,57.52-32.51,78.49
					C185.52,1011.45,157.65,1023,128,1023s-57.52-11.55-78.49-32.51S17,941.65,17,912s11.55-57.52,32.51-78.49S98.35,801,128,801
					 M128,800c-61.86,0-112,50.14-112,112s50.14,112,112,112s112-50.14,112-112S189.86,800,128,800L128,800z"/>
			</g>
		</g>
		<g>
			<circle class="st2" cx="127.5" cy="931.5" r="92"/>
			<path class="st2" d="M127.5,840c50.45,0,91.5,41.05,91.5,91.5s-41.05,91.5-91.5,91.5S36,981.95,36,931.5S77.05,840,127.5,840
				 M127.5,839C76.41,839,35,880.41,35,931.5c0,51.09,41.41,92.5,92.5,92.5s92.5-41.41,92.5-92.5C220,880.41,178.59,839,127.5,839
				L127.5,839z"/>
		</g>
		<g>
			<circle class="st3" cx="128" cy="954" r="69.5"/>
			<path class="st3" d="M128,885c38.05,0,69,30.95,69,69s-30.95,69-69,69s-69-30.95-69-69S89.95,885,128,885 M128,884
				c-38.66,0-70,31.34-70,70s31.34,70,70,70s70-31.34,70-70S166.66,884,128,884L128,884z"/>
		</g>
		<g>
			<circle class="st4" cx="128" cy="971" r="52.5"/>
			<path class="st4" d="M128,919c28.67,0,52,23.33,52,52s-23.33,52-52,52s-52-23.33-52-52S99.33,919,128,919 M128,918
				c-29.27,0-53,23.73-53,53c0,29.27,23.73,53,53,53s53-23.73,53-53C181,941.73,157.27,918,128,918L128,918z"/>
		</g>
	</g>
	<g>
		<g>
			<circle class="st0" cx="384" cy="896" r="127.5"/>
			<path class="st0" d="M384,769c33.92,0,65.82,13.21,89.8,37.2S511,862.08,511,896s-13.21,65.82-37.2,89.8S417.92,1023,384,1023
				s-65.82-13.21-89.8-37.2C270.21,961.82,257,929.92,257,896s13.21-65.82,37.2-89.8C318.18,782.21,350.08,769,384,769 M384,768
				c-70.69,0-128,57.31-128,128s57.31,128,128,128s128-57.31,128-128S454.69,768,384,768L384,768z"/>
		</g>
		<g>
			<circle class="st1" cx="384" cy="912" r="111.5"/>
			<g>
				<path class="st1" d="M384,801c29.65,0,57.52,11.55,78.49,32.51S495,882.35,495,912s-11.55,57.52-32.51,78.49
					S413.65,1023,384,1023s-57.52-11.55-78.49-32.51C284.55,969.52,273,941.65,273,912s11.55-57.52,32.51-78.49
					C326.48,812.55,354.35,801,384,801 M384,800c-61.86,0-112,50.14-112,112s50.14,112,112,112s112-50.14,112-112
					S445.86,800,384,800L384,800z"/>
			</g>
		</g>
		<g>
			<circle class="st2" cx="383.5" cy="931.5" r="92"/>
			<path class="st2" d="M383.5,840c50.45,0,91.5,41.05,91.5,91.5s-41.05,91.5-91.5,91.5S292,981.95,292,931.5S333.05,840,383.5,840
				 M383.5,839c-51.09,0-92.5,41.41-92.5,92.5c0,51.09,41.41,92.5,92.5,92.5s92.5-41.41,92.5-92.5C476,880.41,434.59,839,383.5,839
				L383.5,839z"/>
		</g>
		<g>
			<circle class="st3" cx="384" cy="954" r="69.5"/>
			<path class="st3" d="M384,885c38.05,0,69,30.95,69,69s-30.95,69-69,69s-69-30.95-69-69S345.95,885,384,885 M384,884
				c-38.66,0-70,31.34-70,70s31.34,70,70,70s70-31.34,70-70S422.66,884,384,884L384,884z"/>
		</g>
		<g>
			<circle class="st4" cx="384" cy="971" r="52.5"/>
			<path class="st4" d="M384,919c28.67,0,52,23.33,52,52s-23.33,52-52,52s-52-23.33-52-52S355.33,919,384,919 M384,918
				c-29.27,0-53,23.73-53,53c0,29.27,23.73,53,53,53c29.27,0,53-23.73,53-53C437,941.73,413.27,918,384,918L384,918z"/>
		</g>
	</g>
	<g>
		<g>
			<circle class="st0" cx="640" cy="896" r="127.5"/>
			<path class="st0" d="M640,769c33.92,0,65.82,13.21,89.8,37.2S767,862.08,767,896s-13.21,65.82-37.2,89.8S673.92,1023,640,1023
				s-65.82-13.21-89.8-37.2S513,929.92,513,896s13.21-65.82,37.2-89.8S606.08,769,640,769 M640,768c-70.69,0-128,57.31-128,128
				s57.31,128,128,128s128-57.31,128-128S710.69,768,640,768L640,768z"/>
		</g>
		<g>
			<circle class="st1" cx="640" cy="912" r="111.5"/>
			<g>
				<path class="st1" d="M640,801c29.65,0,57.52,11.55,78.49,32.51S751,882.35,751,912s-11.55,57.52-32.51,78.49
					S669.65,1023,640,1023s-57.52-11.55-78.49-32.51S529,941.65,529,912s11.55-57.52,32.51-78.49S610.35,801,640,801 M640,800
					c-61.86,0-112,50.14-112,112s50.14,112,112,112s112-50.14,112-112S701.86,800,640,800L640,800z"/>
			</g>
		</g>
		<g>
			<circle class="st2" cx="639.5" cy="931.5" r="92"/>
			<path class="st2" d="M639.5,840c50.45,0,91.5,41.05,91.5,91.5s-41.05,91.5-91.5,91.5S548,981.95,548,931.5S589.05,840,639.5,840
				 M639.5,839c-51.09,0-92.5,41.41-92.5,92.5c0,51.09,41.41,92.5,92.5,92.5c51.09,0,92.5-41.41,92.5-92.5
				C732,880.41,690.59,839,639.5,839L639.5,839z"/>
		</g>
		<g>
			<circle class="st3" cx="640" cy="954" r="69.5"/>
			<path class="st3" d="M640,885c38.05,0,69,30.95,69,69s-30.95,69-69,69s-69-30.95-69-69S601.95,885,640,885 M640,884
				c-38.66,0-70,31.34-70,70s31.34,70,70,70s70-31.34,70-70S678.66,884,640,884L640,884z"/>
		</g>
		<g>
			<circle class="st4" cx="640" cy="971" r="52.5"/>
			<path class="st4" d="M640,919c28.67,0,52,23.33,52,52s-23.33,52-52,52s-52-23.33-52-52S611.33,919,640,919 M640,918
				c-29.27,0-53,23.73-53,53c0,29.27,23.73,53,53,53c29.27,0,53-23.73,53-53C693,941.73,669.27,918,640,918L640,918z"/>
		</g>
	</g>
	<g>
		<g>
			
				<ellipse transform="matrix(0.1602 -0.9871 0.9871 0.1602 -131.9531 1636.9073)" class="st0" cx="896" cy="896" rx="127.5" ry="127.5"/>
			<path class="st0" d="M896,769c33.92,0,65.82,13.21,89.8,37.2c23.99,23.99,37.2,55.88,37.2,89.8s-13.21,65.82-37.2,89.8
				c-23.99,23.99-55.88,37.2-89.8,37.2c-33.92,0-65.82-13.21-89.8-37.2C782.21,961.82,769,929.92,769,896s13.21-65.82,37.2-89.8
				C830.18,782.21,862.08,769,896,769 M896,768c-70.69,0-128,57.31-128,128s57.31,128,128,128c70.69,0,128-57.31,128-128
				S966.69,768,896,768L896,768z"/>
		</g>
		<g>
			
				<ellipse transform="matrix(0.1602 -0.9871 0.9871 0.1602 -147.7464 1650.3445)" class="st1" cx="896" cy="912" rx="111.5" ry="111.5"/>
			<g>
				<path class="st1" d="M896,801c29.65,0,57.52,11.55,78.49,32.51C995.45,854.48,1007,882.35,1007,912s-11.55,57.52-32.51,78.49
					C953.52,1011.45,925.65,1023,896,1023s-57.52-11.55-78.49-32.51S785,941.65,785,912s11.55-57.52,32.51-78.49S866.35,801,896,801
					 M896,800c-61.86,0-112,50.14-112,112s50.14,112,112,112c61.86,0,112-50.14,112-112S957.86,800,896,800L896,800z"/>
			</g>
		</g>
		<g>
			<circle class="st2" cx="895.5" cy="931.5" r="92"/>
			<path class="st2" d="M895.5,840c50.45,0,91.5,41.05,91.5,91.5s-41.05,91.5-91.5,91.5c-50.45,0-91.5-41.05-91.5-91.5
				S845.05,840,895.5,840 M895.5,839c-51.09,0-92.5,41.41-92.5,92.5c0,51.09,41.41,92.5,92.5,92.5c51.09,0,92.5-41.41,92.5-92.5
				C988,880.41,946.59,839,895.5,839L895.5,839z"/>
		</g>
		<g>
			<circle class="st3" cx="896" cy="954" r="69.5"/>
			<path class="st3" d="M896,885c38.05,0,69,30.95,69,69s-30.95,69-69,69s-69-30.95-69-69S857.95,885,896,885 M896,884
				c-38.66,0-70,31.34-70,70s31.34,70,70,70c38.66,0,70-31.34,70-70S934.66,884,896,884L896,884z"/>
		</g>
		<g>
			<circle class="st4" cx="896" cy="971" r="52.5"/>
			<path class="st4" d="M896,919c28.67,0,52,23.33,52,52s-23.33,52-52,52c-28.67,0-52-23.33-52-52S867.33,919,896,919 M896,918
				c-29.27,0-53,23.73-53,53c0,29.27,23.73,53,53,53c29.27,0,53-23.73,53-53C949,941.73,925.27,918,896,918L896,918z"/>
		</g>
	</g>
	<g>
		<g>
			<circle class="st0" cx="1152" cy="896" r="127.5"/>
			<path class="st0" d="M1152,769c33.92,0,65.82,13.21,89.8,37.2c23.99,23.99,37.2,55.88,37.2,89.8s-13.21,65.82-37.2,89.8
				c-23.99,23.99-55.88,37.2-89.8,37.2c-33.92,0-65.82-13.21-89.8-37.2c-23.99-23.99-37.2-55.88-37.2-89.8s13.21-65.82,37.2-89.8
				C1086.18,782.21,1118.08,769,1152,769 M1152,768c-70.69,0-128,57.31-128,128s57.31,128,128,128c70.69,0,128-57.31,128-128
				S1222.69,768,1152,768L1152,768z"/>
		</g>
		<g>
			<circle class="st1" cx="1152" cy="912" r="111.5"/>
			<g>
				<path class="st1" d="M1152,801c29.65,0,57.52,11.55,78.49,32.51c20.97,20.97,32.51,48.84,32.51,78.49s-11.55,57.52-32.51,78.49
					c-20.97,20.97-48.84,32.51-78.49,32.51s-57.52-11.55-78.49-32.51C1052.55,969.52,1041,941.65,1041,912s11.55-57.52,32.51-78.49
					C1094.48,812.55,1122.35,801,1152,801 M1152,800c-61.86,0-112,50.14-112,112s50.14,112,112,112c61.86,0,112-50.14,112-112
					S1213.86,800,1152,800L1152,800z"/>
			</g>
		</g>
		<g>
			<circle class="st2" cx="1151.5" cy="931.5" r="92"/>
			<path class="st2" d="M1151.5,840c50.45,0,91.5,41.05,91.5,91.5s-41.05,91.5-91.5,91.5s-91.5-41.05-91.5-91.5
				S1101.05,840,1151.5,840 M1151.5,839c-51.09,0-92.5,41.41-92.5,92.5c0,51.09,41.41,92.5,92.5,92.5c51.09,0,92.5-41.41,92.5-92.5
				C1244,880.41,1202.59,839,1151.5,839L1151.5,839z"/>
		</g>
		<g>
			<circle class="st3" cx="1152" cy="954" r="69.5"/>
			<path class="st3" d="M1152,885c38.05,0,69,30.95,69,69s-30.95,69-69,69s-69-30.95-69-69S1113.95,885,1152,885 M1152,884
				c-38.66,0-70,31.34-70,70s31.34,70,70,70c38.66,0,70-31.34,70-70S1190.66,884,1152,884L1152,884z"/>
		</g>
		<g>
			<circle class="st4" cx="1152" cy="971" r="52.5"/>
			<path class="st4" d="M1152,919c28.67,0,52,23.33,52,52s-23.33,52-52,52s-52-23.33-52-52S1123.33,919,1152,919 M1152,918
				c-29.27,0-53,23.73-53,53c0,29.27,23.73,53,53,53c29.27,0,53-23.73,53-53C1205,941.73,1181.27,918,1152,918L1152,918z"/>
		</g>
	</g>
	<g>
		<g>
			<circle class="st0" cx="1408" cy="896" r="127.5"/>
			<path class="st0" d="M1408,769c33.92,0,65.82,13.21,89.8,37.2c23.99,23.99,37.2,55.88,37.2,89.8s-13.21,65.82-37.2,89.8
				c-23.99,23.99-55.88,37.2-89.8,37.2c-33.92,0-65.82-13.21-89.8-37.2c-23.99-23.99-37.2-55.88-37.2-89.8s13.21-65.82,37.2-89.8
				C1342.18,782.21,1374.08,769,1408,769 M1408,768c-70.69,0-128,57.31-128,128s57.31,128,128,128c70.69,0,128-57.31,128-128
				S1478.69,768,1408,768L1408,768z"/>
		</g>
		<g>
			<circle class="st1" cx="1408" cy="912" r="111.5"/>
			<g>
				<path class="st1" d="M1408,801c29.65,0,57.52,11.55,78.49,32.51c20.97,20.97,32.51,48.84,32.51,78.49s-11.55,57.52-32.51,78.49
					c-20.97,20.97-48.84,32.51-78.49,32.51s-57.52-11.55-78.49-32.51C1308.55,969.52,1297,941.65,1297,912s11.55-57.52,32.51-78.49
					C1350.48,812.55,1378.35,801,1408,801 M1408,800c-61.86,0-112,50.14-112,112s50.14,112,112,112c61.86,0,112-50.14,112-112
					S1469.86,800,1408,800L1408,800z"/>
			</g>
		</g>
		<g>
			<circle class="st2" cx="1407.5" cy="931.5" r="92"/>
			<path class="st2" d="M1407.5,840c50.45,0,91.5,41.05,91.5,91.5s-41.05,91.5-91.5,91.5s-91.5-41.05-91.5-91.5
				S1357.05,840,1407.5,840 M1407.5,839c-51.09,0-92.5,41.41-92.5,92.5c0,51.09,41.41,92.5,92.5,92.5c51.09,0,92.5-41.41,92.5-92.5
				C1500,880.41,1458.59,839,1407.5,839L1407.5,839z"/>
		</g>
		<g>
			<circle class="st3" cx="1408" cy="954" r="69.5"/>
			<path class="st3" d="M1408,885c38.05,0,69,30.95,69,69s-30.95,69-69,69s-69-30.95-69-69S1369.95,885,1408,885 M1408,884
				c-38.66,0-70,31.34-70,70s31.34,70,70,70c38.66,0,70-31.34,70-70S1446.66,884,1408,884L1408,884z"/>
		</g>
		<g>
			<circle class="st4" cx="1408" cy="971" r="52.5"/>
			<path class="st4" d="M1408,919c28.67,0,52,23.33,52,52s-23.33,52-52,52s-52-23.33-52-52S1379.33,919,1408,919 M1408,918
				c-29.27,0-53,23.73-53,53c0,29.27,23.73,53,53,53c29.27,0,53-23.73,53-53C1461,941.73,1437.27,918,1408,918L1408,918z"/>
		</g>
	</g>
	<g>
		<g>
			<circle class="st0" cx="1664" cy="896" r="127.5"/>
			<path class="st0" d="M1664,769c33.92,0,65.82,13.21,89.8,37.2c23.99,23.99,37.2,55.88,37.2,89.8s-13.21,65.82-37.2,89.8
				c-23.99,23.99-55.88,37.2-89.8,37.2c-33.92,0-65.82-13.21-89.8-37.2c-23.99-23.99-37.2-55.88-37.2-89.8s13.21-65.82,37.2-89.8
				C1598.18,782.21,1630.08,769,1664,769 M1664,768c-70.69,0-128,57.31-128,128s57.31,128,128,128c70.69,0,128-57.31,128-128
				S1734.69,768,1664,768L1664,768z"/>
		</g>
		<g>
			<circle class="st1" cx="1664" cy="912" r="111.5"/>
			<g>
				<path class="st1" d="M1664,801c29.65,0,57.52,11.55,78.49,32.51c20.97,20.97,32.51,48.84,32.51,78.49s-11.55,57.52-32.51,78.49
					c-20.97,20.97-48.84,32.51-78.49,32.51s-57.52-11.55-78.49-32.51C1564.55,969.52,1553,941.65,1553,912s11.55-57.52,32.51-78.49
					C1606.48,812.55,1634.35,801,1664,801 M1664,800c-61.86,0-112,50.14-112,112s50.14,112,112,112c61.86,0,112-50.14,112-112
					S1725.86,800,1664,800L1664,800z"/>
			</g>
		</g>
		<g>
			<circle class="st2" cx="1663.5" cy="931.5" r="92"/>
			<path class="st2" d="M1663.5,840c50.45,0,91.5,41.05,91.5,91.5s-41.05,91.5-91.5,91.5s-91.5-41.05-91.5-91.5
				S1613.05,840,1663.5,840 M1663.5,839c-51.09,0-92.5,41.41-92.5,92.5c0,51.09,41.41,92.5,92.5,92.5c51.09,0,92.5-41.41,92.5-92.5
				C1756,880.41,1714.59,839,1663.5,839L1663.5,839z"/>
		</g>
		<g>
			<circle class="st3" cx="1664" cy="954" r="69.5"/>
			<path class="st3" d="M1664,885c38.05,0,69,30.95,69,69s-30.95,69-69,69s-69-30.95-69-69S1625.95,885,1664,885 M1664,884
				c-38.66,0-70,31.34-70,70s31.34,70,70,70c38.66,0,70-31.34,70-70S1702.66,884,1664,884L1664,884z"/>
		</g>
		<g>
			<circle class="st4" cx="1664" cy="971" r="52.5"/>
			<path class="st4" d="M1664,919c28.67,0,52,23.33,52,52s-23.33,52-52,52s-52-23.33-52-52S1635.33,919,1664,919 M1664,918
				c-29.27,0-53,23.73-53,53c0,29.27,23.73,53,53,53c29.27,0,53-23.73,53-53C1717,941.73,1693.27,918,1664,918L1664,918z"/>
		</g>
	</g>
	<g>
		<g>
			<circle class="st0" cx="1920" cy="896" r="127.5"/>
			<path class="st0" d="M1920,769c33.92,0,65.82,13.21,89.8,37.2c23.99,23.99,37.2,55.88,37.2,89.8s-13.21,65.82-37.2,89.8
				c-23.99,23.99-55.88,37.2-89.8,37.2c-33.92,0-65.82-13.21-89.8-37.2c-23.99-23.99-37.2-55.88-37.2-89.8s13.21-65.82,37.2-89.8
				C1854.18,782.21,1886.08,769,1920,769 M1920,768c-70.69,0-128,57.31-128,128s57.31,128,128,128c70.69,0,128-57.31,128-128
				S1990.69,768,1920,768L1920,768z"/>
		</g>
		<g>
			<circle class="st1" cx="1920" cy="912" r="111.5"/>
			<g>
				<path class="st1" d="M1920,801c29.65,0,57.52,11.55,78.49,32.51c20.97,20.97,32.51,48.84,32.51,78.49s-11.55,57.52-32.51,78.49
					c-20.97,20.97-48.84,32.51-78.49,32.51s-57.52-11.55-78.49-32.51S1809,941.65,1809,912s11.55-57.52,32.51-78.49
					S1890.35,801,1920,801 M1920,800c-61.86,0-112,50.14-112,112s50.14,112,112,112c61.86,0,112-50.14,112-112S1981.86,800,1920,800
					L1920,800z"/>
			</g>
		</g>
		<g>
			<circle class="st2" cx="1919.5" cy="931.5" r="92"/>
			<path class="st2" d="M1919.5,840c50.45,0,91.5,41.05,91.5,91.5s-41.05,91.5-91.5,91.5c-50.45,0-91.5-41.05-91.5-91.5
				S1869.05,840,1919.5,840 M1919.5,839c-51.09,0-92.5,41.41-92.5,92.5c0,51.09,41.41,92.5,92.5,92.5c51.09,0,92.5-41.41,92.5-92.5
				C2012,880.41,1970.59,839,1919.5,839L1919.5,839z"/>
		</g>
		<g>
			<circle class="st3" cx="1920" cy="954" r="69.5"/>
			<path class="st3" d="M1920,885c38.05,0,69,30.95,69,69s-30.95,69-69,69s-69-30.95-69-69S1881.95,885,1920,885 M1920,884
				c-38.66,0-70,31.34-70,70s31.34,70,70,70s70-31.34,70-70S1958.66,884,1920,884L1920,884z"/>
		</g>
		<g>
			<circle class="st4" cx="1920" cy="971" r="52.5"/>
			<path class="st4" d="M1920,919c28.67,0,52,23.33,52,52s-23.33,52-52,52s-52-23.33-52-52S1891.33,919,1920,919 M1920,918
				c-29.27,0-53,23.73-53,53c0,29.27,23.73,53,53,53c29.27,0,53-23.73,53-53C1973,941.73,1949.27,918,1920,918L1920,918z"/>
		</g>
	</g>
	<g>
		<g>
			<circle class="st0" cx="123" cy="1152" r="127.5"/>
			<path class="st0" d="M123,1025c33.92,0,65.82,13.21,89.8,37.2c23.99,23.99,37.2,55.88,37.2,89.8c0,33.92-13.21,65.82-37.2,89.8
				c-23.99,23.99-55.88,37.2-89.8,37.2s-65.82-13.21-89.8-37.2C9.21,1217.82-4,1185.92-4,1152c0-33.92,13.21-65.82,37.2-89.8
				C57.18,1038.21,89.08,1025,123,1025 M123,1024c-70.69,0-128,57.31-128,128c0,70.69,57.31,128,128,128s128-57.31,128-128
				C251,1081.31,193.69,1024,123,1024L123,1024z"/>
		</g>
		<g>
			<circle class="st1" cx="123" cy="1168" r="111.5"/>
			<g>
				<path class="st1" d="M123,1057c29.65,0,57.52,11.55,78.49,32.51c20.97,20.97,32.51,48.84,32.51,78.49s-11.55,57.52-32.51,78.49
					C180.52,1267.45,152.65,1279,123,1279s-57.52-11.55-78.49-32.51C23.55,1225.52,12,1197.65,12,1168s11.55-57.52,32.51-78.49
					C65.48,1068.55,93.35,1057,123,1057 M123,1056c-61.86,0-112,50.14-112,112c0,61.86,50.14,112,112,112s112-50.14,112-112
					C235,1106.14,184.86,1056,123,1056L123,1056z"/>
			</g>
		</g>
		<g>
			<circle class="st2" cx="122.5" cy="1187.5" r="92"/>
			<path class="st2" d="M122.5,1096c50.45,0,91.5,41.05,91.5,91.5s-41.05,91.5-91.5,91.5S31,1237.95,31,1187.5
				S72.05,1096,122.5,1096 M122.5,1095c-51.09,0-92.5,41.41-92.5,92.5s41.41,92.5,92.5,92.5s92.5-41.41,92.5-92.5
				S173.59,1095,122.5,1095L122.5,1095z"/>
		</g>
		<g>
			<circle class="st3" cx="123" cy="1210" r="69.5"/>
			<path class="st3" d="M123,1141c38.05,0,69,30.95,69,69c0,38.05-30.95,69-69,69s-69-30.95-69-69C54,1171.95,84.95,1141,123,1141
				 M123,1140c-38.66,0-70,31.34-70,70s31.34,70,70,70s70-31.34,70-70S161.66,1140,123,1140L123,1140z"/>
		</g>
		<g>
			<circle class="st4" cx="123" cy="1227" r="52.5"/>
			<path class="st4" d="M123,1175c28.67,0,52,23.33,52,52c0,28.67-23.33,52-52,52s-52-23.33-52-52C71,1198.33,94.33,1175,123,1175
				 M123,1174c-29.27,0-53,23.73-53,53s23.73,53,53,53s53-23.73,53-53S152.27,1174,123,1174L123,1174z"/>
		</g>
	</g>
	<g>
		<g>
			<circle class="st0" cx="379" cy="1152" r="127.5"/>
			<path class="st0" d="M379,1025c33.92,0,65.82,13.21,89.8,37.2c23.99,23.99,37.2,55.88,37.2,89.8c0,33.92-13.21,65.82-37.2,89.8
				c-23.99,23.99-55.88,37.2-89.8,37.2s-65.82-13.21-89.8-37.2c-23.99-23.99-37.2-55.88-37.2-89.8c0-33.92,13.21-65.82,37.2-89.8
				C313.18,1038.21,345.08,1025,379,1025 M379,1024c-70.69,0-128,57.31-128,128c0,70.69,57.31,128,128,128s128-57.31,128-128
				C507,1081.31,449.69,1024,379,1024L379,1024z"/>
		</g>
		<g>
			<circle class="st1" cx="379" cy="1168" r="111.5"/>
			<g>
				<path class="st1" d="M379,1057c29.65,0,57.52,11.55,78.49,32.51c20.97,20.97,32.51,48.84,32.51,78.49s-11.55,57.52-32.51,78.49
					C436.52,1267.45,408.65,1279,379,1279s-57.52-11.55-78.49-32.51C279.55,1225.52,268,1197.65,268,1168s11.55-57.52,32.51-78.49
					C321.48,1068.55,349.35,1057,379,1057 M379,1056c-61.86,0-112,50.14-112,112c0,61.86,50.14,112,112,112s112-50.14,112-112
					C491,1106.14,440.86,1056,379,1056L379,1056z"/>
			</g>
		</g>
		<g>
			<circle class="st2" cx="378.5" cy="1187.5" r="92"/>
			<path class="st2" d="M378.5,1096c50.45,0,91.5,41.05,91.5,91.5s-41.05,91.5-91.5,91.5s-91.5-41.05-91.5-91.5
				S328.05,1096,378.5,1096 M378.5,1095c-51.09,0-92.5,41.41-92.5,92.5s41.41,92.5,92.5,92.5s92.5-41.41,92.5-92.5
				S429.59,1095,378.5,1095L378.5,1095z"/>
		</g>
		<g>
			<circle class="st3" cx="379" cy="1210" r="69.5"/>
			<path class="st3" d="M379,1141c38.05,0,69,30.95,69,69c0,38.05-30.95,69-69,69s-69-30.95-69-69C310,1171.95,340.95,1141,379,1141
				 M379,1140c-38.66,0-70,31.34-70,70s31.34,70,70,70s70-31.34,70-70S417.66,1140,379,1140L379,1140z"/>
		</g>
		<g>
			<circle class="st4" cx="379" cy="1227" r="52.5"/>
			<path class="st4" d="M379,1175c28.67,0,52,23.33,52,52c0,28.67-23.33,52-52,52s-52-23.33-52-52C327,1198.33,350.33,1175,379,1175
				 M379,1174c-29.27,0-53,23.73-53,53s23.73,53,53,53c29.27,0,53-23.73,53-53S408.27,1174,379,1174L379,1174z"/>
		</g>
	</g>
	<g>
		<g>
			<circle class="st0" cx="635" cy="1152" r="127.5"/>
			<path class="st0" d="M635,1025c33.92,0,65.82,13.21,89.8,37.2c23.99,23.99,37.2,55.88,37.2,89.8c0,33.92-13.21,65.82-37.2,89.8
				c-23.99,23.99-55.88,37.2-89.8,37.2s-65.82-13.21-89.8-37.2c-23.99-23.99-37.2-55.88-37.2-89.8c0-33.92,13.21-65.82,37.2-89.8
				C569.18,1038.21,601.08,1025,635,1025 M635,1024c-70.69,0-128,57.31-128,128c0,70.69,57.31,128,128,128s128-57.31,128-128
				C763,1081.31,705.69,1024,635,1024L635,1024z"/>
		</g>
		<g>
			<circle class="st1" cx="635" cy="1168" r="111.5"/>
			<g>
				<path class="st1" d="M635,1057c29.65,0,57.52,11.55,78.49,32.51c20.97,20.97,32.51,48.84,32.51,78.49s-11.55,57.52-32.51,78.49
					C692.52,1267.45,664.65,1279,635,1279s-57.52-11.55-78.49-32.51C535.55,1225.52,524,1197.65,524,1168s11.55-57.52,32.51-78.49
					C577.48,1068.55,605.35,1057,635,1057 M635,1056c-61.86,0-112,50.14-112,112c0,61.86,50.14,112,112,112s112-50.14,112-112
					C747,1106.14,696.86,1056,635,1056L635,1056z"/>
			</g>
		</g>
		<g>
			<circle class="st2" cx="634.5" cy="1187.5" r="92"/>
			<path class="st2" d="M634.5,1096c50.45,0,91.5,41.05,91.5,91.5s-41.05,91.5-91.5,91.5s-91.5-41.05-91.5-91.5
				S584.05,1096,634.5,1096 M634.5,1095c-51.09,0-92.5,41.41-92.5,92.5s41.41,92.5,92.5,92.5c51.09,0,92.5-41.41,92.5-92.5
				S685.59,1095,634.5,1095L634.5,1095z"/>
		</g>
		<g>
			<circle class="st3" cx="635" cy="1210" r="69.5"/>
			<path class="st3" d="M635,1141c38.05,0,69,30.95,69,69c0,38.05-30.95,69-69,69s-69-30.95-69-69C566,1171.95,596.95,1141,635,1141
				 M635,1140c-38.66,0-70,31.34-70,70s31.34,70,70,70s70-31.34,70-70S673.66,1140,635,1140L635,1140z"/>
		</g>
		<g>
			<circle class="st4" cx="635" cy="1227" r="52.5"/>
			<path class="st4" d="M635,1175c28.67,0,52,23.33,52,52c0,28.67-23.33,52-52,52s-52-23.33-52-52C583,1198.33,606.33,1175,635,1175
				 M635,1174c-29.27,0-53,23.73-53,53s23.73,53,53,53c29.27,0,53-23.73,53-53S664.27,1174,635,1174L635,1174z"/>
		</g>
	</g>
	<g>
		<g>
			
				<ellipse transform="matrix(0.1602 -0.9871 0.9871 0.1602 -388.8466 1846.9652)" class="st0" cx="891" cy="1152" rx="127.5" ry="127.5"/>
			<path class="st0" d="M891,1025c33.92,0,65.82,13.21,89.8,37.2c23.99,23.99,37.2,55.88,37.2,89.8c0,33.92-13.21,65.82-37.2,89.8
				c-23.99,23.99-55.88,37.2-89.8,37.2c-33.92,0-65.82-13.21-89.8-37.2c-23.99-23.99-37.2-55.88-37.2-89.8
				c0-33.92,13.21-65.82,37.2-89.8C825.18,1038.21,857.08,1025,891,1025 M891,1024c-70.69,0-128,57.31-128,128
				c0,70.69,57.31,128,128,128c70.69,0,128-57.31,128-128C1019,1081.31,961.69,1024,891,1024L891,1024z"/>
		</g>
		<g>
			
				<ellipse transform="matrix(0.1602 -0.9871 0.9871 0.1602 -404.6399 1860.4023)" class="st1" cx="891" cy="1168" rx="111.5" ry="111.5"/>
			<g>
				<path class="st1" d="M891,1057c29.65,0,57.52,11.55,78.49,32.51c20.97,20.97,32.51,48.84,32.51,78.49s-11.55,57.52-32.51,78.49
					C948.52,1267.45,920.65,1279,891,1279s-57.52-11.55-78.49-32.51C791.55,1225.52,780,1197.65,780,1168s11.55-57.52,32.51-78.49
					C833.48,1068.55,861.35,1057,891,1057 M891,1056c-61.86,0-112,50.14-112,112c0,61.86,50.14,112,112,112
					c61.86,0,112-50.14,112-112C1003,1106.14,952.86,1056,891,1056L891,1056z"/>
			</g>
		</g>
		<g>
			<circle class="st2" cx="890.5" cy="1187.5" r="92"/>
			<path class="st2" d="M890.5,1096c50.45,0,91.5,41.05,91.5,91.5s-41.05,91.5-91.5,91.5c-50.45,0-91.5-41.05-91.5-91.5
				S840.05,1096,890.5,1096 M890.5,1095c-51.09,0-92.5,41.41-92.5,92.5s41.41,92.5,92.5,92.5c51.09,0,92.5-41.41,92.5-92.5
				S941.59,1095,890.5,1095L890.5,1095z"/>
		</g>
		<g>
			<circle class="st3" cx="891" cy="1210" r="69.5"/>
			<path class="st3" d="M891,1141c38.05,0,69,30.95,69,69c0,38.05-30.95,69-69,69s-69-30.95-69-69C822,1171.95,852.95,1141,891,1141
				 M891,1140c-38.66,0-70,31.34-70,70s31.34,70,70,70c38.66,0,70-31.34,70-70S929.66,1140,891,1140L891,1140z"/>
		</g>
		<g>
			<circle class="st4" cx="891" cy="1227" r="52.5"/>
			<path class="st4" d="M891,1175c28.67,0,52,23.33,52,52c0,28.67-23.33,52-52,52c-28.67,0-52-23.33-52-52
				C839,1198.33,862.33,1175,891,1175 M891,1174c-29.27,0-53,23.73-53,53s23.73,53,53,53c29.27,0,53-23.73,53-53
				S920.27,1174,891,1174L891,1174z"/>
		</g>
	</g>
	<g>
		<g>
			<circle class="st0" cx="1147" cy="1152" r="127.5"/>
			<path class="st0" d="M1147,1025c33.92,0,65.82,13.21,89.8,37.2c23.99,23.99,37.2,55.88,37.2,89.8c0,33.92-13.21,65.82-37.2,89.8
				c-23.99,23.99-55.88,37.2-89.8,37.2c-33.92,0-65.82-13.21-89.8-37.2c-23.99-23.99-37.2-55.88-37.2-89.8
				c0-33.92,13.21-65.82,37.2-89.8C1081.18,1038.21,1113.08,1025,1147,1025 M1147,1024c-70.69,0-128,57.31-128,128
				c0,70.69,57.31,128,128,128c70.69,0,128-57.31,128-128C1275,1081.31,1217.69,1024,1147,1024L1147,1024z"/>
		</g>
		<g>
			<circle class="st1" cx="1147" cy="1168" r="111.5"/>
			<g>
				<path class="st1" d="M1147,1057c29.65,0,57.52,11.55,78.49,32.51c20.97,20.97,32.51,48.84,32.51,78.49s-11.55,57.52-32.51,78.49
					c-20.97,20.97-48.84,32.51-78.49,32.51s-57.52-11.55-78.49-32.51S1036,1197.65,1036,1168s11.55-57.52,32.51-78.49
					C1089.48,1068.55,1117.35,1057,1147,1057 M1147,1056c-61.86,0-112,50.14-112,112c0,61.86,50.14,112,112,112
					c61.86,0,112-50.14,112-112C1259,1106.14,1208.86,1056,1147,1056L1147,1056z"/>
			</g>
		</g>
		<g>
			<circle class="st2" cx="1146.5" cy="1187.5" r="92"/>
			<path class="st2" d="M1146.5,1096c50.45,0,91.5,41.05,91.5,91.5s-41.05,91.5-91.5,91.5s-91.5-41.05-91.5-91.5
				S1096.05,1096,1146.5,1096 M1146.5,1095c-51.09,0-92.5,41.41-92.5,92.5s41.41,92.5,92.5,92.5c51.09,0,92.5-41.41,92.5-92.5
				S1197.59,1095,1146.5,1095L1146.5,1095z"/>
		</g>
		<g>
			<circle class="st3" cx="1147" cy="1210" r="69.5"/>
			<path class="st3" d="M1147,1141c38.05,0,69,30.95,69,69c0,38.05-30.95,69-69,69s-69-30.95-69-69
				C1078,1171.95,1108.95,1141,1147,1141 M1147,1140c-38.66,0-70,31.34-70,70s31.34,70,70,70c38.66,0,70-31.34,70-70
				S1185.66,1140,1147,1140L1147,1140z"/>
		</g>
		<g>
			<circle class="st4" cx="1147" cy="1227" r="52.5"/>
			<path class="st4" d="M1147,1175c28.67,0,52,23.33,52,52c0,28.67-23.33,52-52,52s-52-23.33-52-52
				C1095,1198.33,1118.33,1175,1147,1175 M1147,1174c-29.27,0-53,23.73-53,53s23.73,53,53,53c29.27,0,53-23.73,53-53
				S1176.27,1174,1147,1174L1147,1174z"/>
		</g>
	</g>
	<g>
		<g>
			<circle class="st0" cx="1403" cy="1152" r="127.5"/>
			<path class="st0" d="M1403,1025c33.92,0,65.82,13.21,89.8,37.2c23.99,23.99,37.2,55.88,37.2,89.8c0,33.92-13.21,65.82-37.2,89.8
				c-23.99,23.99-55.88,37.2-89.8,37.2c-33.92,0-65.82-13.21-89.8-37.2c-23.99-23.99-37.2-55.88-37.2-89.8
				c0-33.92,13.21-65.82,37.2-89.8C1337.18,1038.21,1369.08,1025,1403,1025 M1403,1024c-70.69,0-128,57.31-128,128
				c0,70.69,57.31,128,128,128c70.69,0,128-57.31,128-128C1531,1081.31,1473.69,1024,1403,1024L1403,1024z"/>
		</g>
		<g>
			<circle class="st1" cx="1403" cy="1168" r="111.5"/>
			<g>
				<path class="st1" d="M1403,1057c29.65,0,57.52,11.55,78.49,32.51c20.97,20.97,32.51,48.84,32.51,78.49s-11.55,57.52-32.51,78.49
					c-20.97,20.97-48.84,32.51-78.49,32.51s-57.52-11.55-78.49-32.51S1292,1197.65,1292,1168s11.55-57.52,32.51-78.49
					C1345.48,1068.55,1373.35,1057,1403,1057 M1403,1056c-61.86,0-112,50.14-112,112c0,61.86,50.14,112,112,112
					c61.86,0,112-50.14,112-112C1515,1106.14,1464.86,1056,1403,1056L1403,1056z"/>
			</g>
		</g>
		<g>
			<circle class="st2" cx="1402.5" cy="1187.5" r="92"/>
			<path class="st2" d="M1402.5,1096c50.45,0,91.5,41.05,91.5,91.5s-41.05,91.5-91.5,91.5s-91.5-41.05-91.5-91.5
				S1352.05,1096,1402.5,1096 M1402.5,1095c-51.09,0-92.5,41.41-92.5,92.5s41.41,92.5,92.5,92.5c51.09,0,92.5-41.41,92.5-92.5
				S1453.59,1095,1402.5,1095L1402.5,1095z"/>
		</g>
		<g>
			<circle class="st3" cx="1403" cy="1210" r="69.5"/>
			<path class="st3" d="M1403,1141c38.05,0,69,30.95,69,69c0,38.05-30.95,69-69,69s-69-30.95-69-69
				C1334,1171.95,1364.95,1141,1403,1141 M1403,1140c-38.66,0-70,31.34-70,70s31.34,70,70,70c38.66,0,70-31.34,70-70
				S1441.66,1140,1403,1140L1403,1140z"/>
		</g>
		<g>
			<circle class="st4" cx="1403" cy="1227" r="52.5"/>
			<path class="st4" d="M1403,1175c28.67,0,52,23.33,52,52c0,28.67-23.33,52-52,52s-52-23.33-52-52
				C1351,1198.33,1374.33,1175,1403,1175 M1403,1174c-29.27,0-53,23.73-53,53s23.73,53,53,53c29.27,0,53-23.73,53-53
				S1432.27,1174,1403,1174L1403,1174z"/>
		</g>
	</g>
	<g>
		<g>
			<circle class="st0" cx="1659" cy="1152" r="127.5"/>
			<path class="st0" d="M1659,1025c33.92,0,65.82,13.21,89.8,37.2c23.99,23.99,37.2,55.88,37.2,89.8c0,33.92-13.21,65.82-37.2,89.8
				c-23.99,23.99-55.88,37.2-89.8,37.2c-33.92,0-65.82-13.21-89.8-37.2c-23.99-23.99-37.2-55.88-37.2-89.8
				c0-33.92,13.21-65.82,37.2-89.8C1593.18,1038.21,1625.08,1025,1659,1025 M1659,1024c-70.69,0-128,57.31-128,128
				c0,70.69,57.31,128,128,128c70.69,0,128-57.31,128-128C1787,1081.31,1729.69,1024,1659,1024L1659,1024z"/>
		</g>
		<g>
			<circle class="st1" cx="1659" cy="1168" r="111.5"/>
			<g>
				<path class="st1" d="M1659,1057c29.65,0,57.52,11.55,78.49,32.51c20.97,20.97,32.51,48.84,32.51,78.49s-11.55,57.52-32.51,78.49
					c-20.97,20.97-48.84,32.51-78.49,32.51s-57.52-11.55-78.49-32.51S1548,1197.65,1548,1168s11.55-57.52,32.51-78.49
					C1601.48,1068.55,1629.35,1057,1659,1057 M1659,1056c-61.86,0-112,50.14-112,112c0,61.86,50.14,112,112,112
					c61.86,0,112-50.14,112-112C1771,1106.14,1720.86,1056,1659,1056L1659,1056z"/>
			</g>
		</g>
		<g>
			<circle class="st2" cx="1658.5" cy="1187.5" r="92"/>
			<path class="st2" d="M1658.5,1096c50.45,0,91.5,41.05,91.5,91.5s-41.05,91.5-91.5,91.5s-91.5-41.05-91.5-91.5
				S1608.05,1096,1658.5,1096 M1658.5,1095c-51.09,0-92.5,41.41-92.5,92.5s41.41,92.5,92.5,92.5c51.09,0,92.5-41.41,92.5-92.5
				S1709.59,1095,1658.5,1095L1658.5,1095z"/>
		</g>
		<g>
			<circle class="st3" cx="1659" cy="1210" r="69.5"/>
			<path class="st3" d="M1659,1141c38.05,0,69,30.95,69,69c0,38.05-30.95,69-69,69s-69-30.95-69-69
				C1590,1171.95,1620.95,1141,1659,1141 M1659,1140c-38.66,0-70,31.34-70,70s31.34,70,70,70c38.66,0,70-31.34,70-70
				S1697.66,1140,1659,1140L1659,1140z"/>
		</g>
		<g>
			<circle class="st4" cx="1659" cy="1227" r="52.5"/>
			<path class="st4" d="M1659,1175c28.67,0,52,23.33,52,52c0,28.67-23.33,52-52,52s-52-23.33-52-52
				C1607,1198.33,1630.33,1175,1659,1175 M1659,1174c-29.27,0-53,23.73-53,53s23.73,53,53,53c29.27,0,53-23.73,53-53
				S1688.27,1174,1659,1174L1659,1174z"/>
		</g>
	</g>
	<g>
		<g>
			<circle class="st0" cx="1915" cy="1152" r="127.5"/>
			<path class="st0" d="M1915,1025c33.92,0,65.82,13.21,89.8,37.2c23.99,23.99,37.2,55.88,37.2,89.8c0,33.92-13.21,65.82-37.2,89.8
				c-23.99,23.99-55.88,37.2-89.8,37.2c-33.92,0-65.82-13.21-89.8-37.2c-23.99-23.99-37.2-55.88-37.2-89.8
				c0-33.92,13.21-65.82,37.2-89.8C1849.18,1038.21,1881.08,1025,1915,1025 M1915,1024c-70.69,0-128,57.31-128,128
				c0,70.69,57.31,128,128,128c70.69,0,128-57.31,128-128C2043,1081.31,1985.69,1024,1915,1024L1915,1024z"/>
		</g>
		<g>
			<circle class="st1" cx="1915" cy="1168" r="111.5"/>
			<g>
				<path class="st1" d="M1915,1057c29.65,0,57.52,11.55,78.49,32.51c20.97,20.97,32.51,48.84,32.51,78.49s-11.55,57.52-32.51,78.49
					c-20.97,20.97-48.84,32.51-78.49,32.51s-57.52-11.55-78.49-32.51c-20.97-20.97-32.51-48.84-32.51-78.49s11.55-57.52,32.51-78.49
					C1857.48,1068.55,1885.35,1057,1915,1057 M1915,1056c-61.86,0-112,50.14-112,112c0,61.86,50.14,112,112,112
					c61.86,0,112-50.14,112-112C2027,1106.14,1976.86,1056,1915,1056L1915,1056z"/>
			</g>
		</g>
		<g>
			<circle class="st2" cx="1914.5" cy="1187.5" r="92"/>
			<path class="st2" d="M1914.5,1096c50.45,0,91.5,41.05,91.5,91.5s-41.05,91.5-91.5,91.5c-50.45,0-91.5-41.05-91.5-91.5
				S1864.05,1096,1914.5,1096 M1914.5,1095c-51.09,0-92.5,41.41-92.5,92.5s41.41,92.5,92.5,92.5c51.09,0,92.5-41.41,92.5-92.5
				S1965.59,1095,1914.5,1095L1914.5,1095z"/>
		</g>
		<g>
			<circle class="st3" cx="1915" cy="1210" r="69.5"/>
			<path class="st3" d="M1915,1141c38.05,0,69,30.95,69,69c0,38.05-30.95,69-69,69s-69-30.95-69-69
				C1846,1171.95,1876.95,1141,1915,1141 M1915,1140c-38.66,0-70,31.34-70,70s31.34,70,70,70s70-31.34,70-70S1953.66,1140,1915,1140
				L1915,1140z"/>
		</g>
		<g>
			<circle class="st4" cx="1915" cy="1227" r="52.5"/>
			<path class="st4" d="M1915,1175c28.67,0,52,23.33,52,52c0,28.67-23.33,52-52,52s-52-23.33-52-52
				C1863,1198.33,1886.33,1175,1915,1175 M1915,1174c-29.27,0-53,23.73-53,53s23.73,53,53,53c29.27,0,53-23.73,53-53
				S1944.27,1174,1915,1174L1915,1174z"/>
		</g>
	</g>
</g>
</svg>
