<?xml version="1.0" encoding="utf-8"?>
<!-- Generator: Adobe Illustrator 25.3.1, SVG Export Plug-In . SVG Version: 6.00 Build 0)  -->
<svg version="1.1" id="Layer_1" xmlns="http://www.w3.org/2000/svg" xmlns:xlink="http://www.w3.org/1999/xlink" x="0px" y="0px"
	 viewBox="0 0 1920 1080" style="enable-background:new 0 0 1920 1080;" xml:space="preserve">
<style type="text/css">
	.st0{fill:#FBF3DD;}
	.st1{fill:#FBF3DD;stroke:#A23E1F;stroke-width:15;stroke-miterlimit:10;}
	.st2{fill:#FBF3DD;stroke:#A23E1F;stroke-width:11;stroke-miterlimit:10;}
</style>
<g>
	<rect x="0.5" y="0.5" class="st0" width="1919" height="1079"/>
	<path class="st0" d="M1919,1v1078H1V1h939.98H1919 M1920,0c-326.34,0-652.68,0-979.02,0C627.32,0,313.66,0,0,0v1080h1920
		C1920,720,1920,360,1920,0L1920,0z"/>
</g>
<path class="st1" d="M163.05,134.5c-0.8-12.99,2.9-20.17,5.79-24c18.53-24.53,80.23-12.38,86.91,10c6.67,22.32-38.39,64.82-86.91,74
	c-28.78,5.45-78.78,2.96-96.57-30c-19.6-36.3,10.61-89.65,40.56-116c57.84-50.89,145.66-28.26,177.69-20
	c36.44,9.39,53.05,21.25,77.26,32c49.54,22.01,127.15,37.73,247.22,4L940.98,0"/>
<path class="st1" d="M1718.6,134.07c0.8-12.99-2.9-20.17-5.79-24c-18.53-24.53-80.23-12.38-86.91,10
	c-6.67,22.32,38.39,64.82,86.91,74c28.78,5.45,78.78,2.96,96.57-30c19.6-36.3-10.61-89.65-40.56-116
	c-57.84-50.89-145.66-28.26-177.69-20c-36.44,9.39-53.05,21.25-77.26,32c-49.54,22.01-127.15,37.73-247.22,4L940.68-0.43"/>
<path class="st2" d="M-0.5,870.5c23.43-22.08,57.53-46.44,96-43c52.34,4.68,84.06,58.26,104,83c84.51,104.87,217.22,8.64,391,81
	c33.34,13.88,83.43,39.46,138,89"/>
<path class="st2" d="M1919.89,870.34c-23.43-22.08-57.53-46.44-96-43c-52.34,4.68-84.06,58.26-104,83
	c-84.51,104.87-217.22,8.64-391,81c-33.34,13.88-83.43,39.46-138,89"/>
</svg>
