<?xml version="1.0" encoding="utf-8"?>
<!-- Generator: Adobe Illustrator 25.3.1, SVG Export Plug-In . SVG Version: 6.00 Build 0)  -->
<svg version="1.1" id="Layer_1" xmlns="http://www.w3.org/2000/svg" xmlns:xlink="http://www.w3.org/1999/xlink" x="0px" y="0px"
	 viewBox="0 0 283.46 283.46" style="enable-background:new 0 0 283.46 283.46;" xml:space="preserve">
<style type="text/css">
	.st0{fill:#F1891E;stroke:#F1891E;stroke-miterlimit:10;}
	.st1{fill:#FCC242;stroke:#FCC242;stroke-miterlimit:10;}
	.st2{fill:#B1674A;stroke:#B1674A;stroke-miterlimit:10;}
	.st3{fill:none;stroke:#F8D891;stroke-miterlimit:10;}
</style>
<ellipse class="st0" cx="159.29" cy="92.02" rx="26.77" ry="26.14"/>
<ellipse class="st0" cx="120.41" cy="99.29" rx="26.77" ry="26.14"/>
<ellipse class="st0" cx="99.96" cy="133.08" rx="26.77" ry="26.14"/>
<ellipse class="st0" cx="118.4" cy="171.98" rx="26.77" ry="26.14"/>
<ellipse class="st0" cx="160.34" cy="185.06" rx="27.82" ry="23.8"/>
<ellipse class="st0" cx="193.03" cy="162.91" rx="26.77" ry="26.14"/>
<ellipse class="st0" cx="194.52" cy="118.16" rx="26.77" ry="26.14"/>
<ellipse class="st1" cx="159.29" cy="92.02" rx="20.44" ry="19.97"/>
<ellipse class="st1" cx="193.03" cy="118.55" rx="20.44" ry="19.97"/>
<ellipse class="st1" cx="193.03" cy="161.37" rx="20.44" ry="19.97"/>
<ellipse class="st1" cx="159.29" cy="183.53" rx="20.44" ry="19.97"/>
<ellipse class="st1" cx="118.4" cy="171.98" rx="20.44" ry="19.97"/>
<ellipse class="st1" cx="102.53" cy="133.08" rx="20.44" ry="19.97"/>
<ellipse class="st1" cx="120.41" cy="98.58" rx="20.44" ry="19.97"/>
<ellipse class="st2" cx="149.14" cy="136.77" rx="32.3" ry="31.55"/>
<path class="st3" d="M168.58,136.77c0,10.32-8.7,18.69-19.44,18.69c-10.73,0-19.44-8.37-19.44-18.69c0-6.21,4.08-11.17,4.72-11.93
	c3-3.52,6.45-5.01,7.42-5.4c0,0,3.56-1.52,7.3-1.36C157.26,118.43,168.58,125.2,168.58,136.77z"/>
<path class="st3" d="M141.04,135.21"/>
<path class="st3" d="M139.42,120.76c-1.59,5.16-4.16,16.44,1.06,27.87c1.01,2.22,2.2,4.18,3.43,5.88"/>
<path class="st3" d="M158.29,120.76c1.59,5.16,4.16,16.44-1.06,27.87c-1.01,2.22-2.2,4.18-3.43,5.88"/>
<line class="st3" x1="149.14" y1="118.08" x2="149.14" y2="155.46"/>
<path class="st3" d="M132.62,119.53c2.04,1.57,6.43,4.48,12.89,5.44c10.91,1.63,19.27-3.55,20.97-4.65"/>
<path class="st3" d="M166.49,153.83c-2.1-1.49-6.6-4.23-13.09-4.96c-10.97-1.22-19.12,4.27-20.78,5.43"/>
<line class="st3" x1="129.71" y1="136.77" x2="168.58" y2="136.77"/>
<circle class="st2" cx="134.19" cy="119.24" r="3.17"/>
<circle class="st2" cx="164.66" cy="119.53" r="3.17"/>
<circle class="st2" cx="164.66" cy="154.31" r="3.17"/>
<circle class="st2" cx="134.19" cy="154.3" r="3.17"/>
</svg>
